{
 "asset": {
  "generator": "Khronos glTF Blender I/O v5.2.40",
  "version": "2.0"
 },
 "scene": 0,
 "scenes": [
  {
   "name": "Scene",
   "nodes": [
    66
   ]
  }
 ],
 "nodes": [
  {
   "name": "index_04_leaf_l",
   "rotation": [
    -9.31322907682386e-10,
    -1,
    -3.978635725997853e-15,
    0.00000365177675121231
   ],
   "translation": [
    7.163180271163583e-9,
    0.0277266725897789,
    1.6024564786221163e-7
   ]
  },
  {
   "children": [
    0
   ],
   "name": "index_03_l",
   "rotation": [
    -1.370001001532728e-9,
    3.3506530883187224e-12,
    -0.00018559210002422333,
    1
   ],
   "translation": [
    -1.2196323950774968e-9,
    0.032098088413476944,
    1.5748949522276234e-7
   ]
  },
  {
   "children": [
    1
   ],
   "name": "index_02_l",
   "rotation": [
    3.861997388554528e-9,
    -3.8929140799837114e-8,
    -0.0005329987616278231,
    0.9999998807907104
   ],
   "translation": [
    7.130438461899757e-10,
    0.03750423714518547,
    1.6590496443313896e-7
   ]
  },
  {
   "children": [
    2
   ],
   "name": "index_01_l",
   "rotation": [
    -0.009757899679243565,
    0.7070369720458984,
    -0.0097578139975667,
    0.7070419788360596
   ],
   "scale": [
    0.9999999403953552,
    0.9999997019767761,
    0.9999998807907104
   ],
   "translation": [
    0.010810005478560925,
    0.13225023448467255,
    0.03737499192357063
   ]
  },
  {
   "name": "middle_04_leaf_l",
   "rotation": [
    -1.862645593320167e-9,
    -1,
    -4.2730731876060996e-14,
    0.000003532567461661529
   ],
   "translation": [
    1.1900738172698766e-8,
    0.03509791940450668,
    -5.257447810436133e-10
   ]
  },
  {
   "children": [
    4
   ],
   "name": "middle_03_l",
   "rotation": [
    -1.0140603912134338e-8,
    2.7887055512043624e-11,
    -0.0014196594711393118,
    0.9999989867210388
   ],
   "scale": [
    0.9999998807907104,
    0.9999998807907104,
    1
   ],
   "translation": [
    4.450157575774938e-9,
    0.03463403880596161,
    -1.4026915096110315e-7
   ]
  },
  {
   "children": [
    5
   ],
   "name": "middle_02_l",
   "rotation": [
    2.0147272294934737e-8,
    8.035192422539694e-8,
    0.0020526598673313856,
    0.9999979138374329
   ],
   "translation": [
    1.0786607163026929e-9,
    0.04315507784485817,
    1.3203288062868523e-7
   ]
  },
  {
   "children": [
    6
   ],
   "name": "middle_01_l",
   "rotation": [
    -0.013192492537200451,
    0.7069812417030334,
    -0.013192382641136646,
    0.7069861888885498
   ],
   "scale": [
    1,
    0.9999998807907104,
    0.9999999403953552
   ],
   "translation": [
    0.00804994348436594,
    0.12949012219905853,
    0.008049997501075268
   ]
  },
  {
   "name": "pinky_04_leaf_l",
   "rotation": [
    2.4400651454925537e-7,
    -1,
    -8.521142775760882e-13,
    0.0000035325672342878534
   ],
   "translation": [
    2.697561285458505e-8,
    0.024751663208007812,
    -1.2472455068746058e-7
   ]
  },
  {
   "children": [
    8
   ],
   "name": "pinky_03_l",
   "rotation": [
    3.4383256242165317e-9,
    -8.637535998945456e-12,
    0.0004658122197724879,
    0.9999998807907104
   ],
   "translation": [
    -2.5175722839776427e-8,
    0.0315454825758934,
    -1.179465130007884e-7
   ]
  },
  {
   "children": [
    9
   ],
   "name": "pinky_02_l",
   "rotation": [
    -5.604063435526996e-9,
    8.03432840257301e-8,
    -0.0015673770103603601,
    0.9999988079071045
   ],
   "scale": [
    0.9999999403953552,
    0.9999998807907104,
    1
   ],
   "translation": [
    -1.2950295058544725e-8,
    0.03637572377920151,
    -2.2615523675995064e-8
   ]
  },
  {
   "children": [
    10
   ],
   "name": "pinky_01_l",
   "rotation": [
    -0.01565239019691944,
    0.706930935382843,
    -0.015652257949113846,
    0.7069361209869385
   ],
   "translation": [
    0.010350069031119347,
    0.10936509072780609,
    -0.04887499287724495
   ]
  },
  {
   "name": "ring_04_leaf_l",
   "rotation": [
    1.0244548320770264e-7,
    -1,
    -5.299560703470041e-13,
    0.000003532567006914178
   ],
   "translation": [
    -8.257302397396415e-9,
    0.03346666321158409,
    -5.964044902384558e-8
   ]
  },
  {
   "children": [
    12
   ],
   "name": "ring_03_l",
   "rotation": [
    -2.50073881602475e-8,
    8.096243814259552e-11,
    -0.003387541277334094,
    0.9999942779541016
   ],
   "scale": [
    0.9999999403953552,
    1,
    1
   ],
   "translation": [
    -1.3144017430022359e-8,
    0.03254522383213043,
    9.535453315834275e-9
   ]
  },
  {
   "children": [
    13
   ],
   "name": "ring_02_l",
   "rotation": [
    1.6597679675101062e-8,
    7.988499817201955e-8,
    0.0023995412047952414,
    0.9999971389770508
   ],
   "scale": [
    1,
    0.9999999403953552,
    1
   ],
   "translation": [
    3.0067894840613008e-9,
    0.04140147194266319,
    1.4595607922274212e-7
   ]
  },
  {
   "children": [
    14
   ],
   "name": "ring_01_l",
   "rotation": [
    -0.00294619076885283,
    0.7070980668067932,
    -0.0029461693484336138,
    0.7071031928062439
   ],
   "scale": [
    1,
    0.9999998807907104,
    0.9999999403953552
   ],
   "translation": [
    0.008395045064389706,
    0.12213020026683807,
    -0.02345999702811241
   ]
  },
  {
   "name": "thumb_04_leaf_l",
   "rotation": [
    -5.276614274407621e-7,
    0.4282081723213196,
    3.1278366918741085e-7,
    0.903680145740509
   ],
   "translation": [
    -1.8457649275660515e-7,
    0.039789553731679916,
    1.4086253941059113e-8
   ]
  },
  {
   "children": [
    16
   ],
   "name": "thumb_03_l",
   "rotation": [
    -0.00037237268406897783,
    0.00002664980092959013,
    0.00011465700663393363,
    0.9999999403953552
   ],
   "scale": [
    1,
    0.9999998807907104,
    0.9999998807907104
   ],
   "translation": [
    1.4452962204813957e-7,
    0.04511186480522156,
    -6.728805601596832e-8
   ]
  },
  {
   "children": [
    17
   ],
   "name": "thumb_02_l",
   "rotation": [
    0.0008556029060855508,
    0.0000345399857906159,
    -0.0004890158888883889,
    0.9999995231628418
   ],
   "scale": [
    0.9999998807907104,
    0.9999998807907104,
    0.9999998211860657
   ],
   "translation": [
    -1.0989606380462646e-7,
    0.04550015181303024,
    1.2689270079135895e-8
   ]
  },
  {
   "children": [
    18
   ],
   "name": "thumb_01_l",
   "rotation": [
    0.3009931147098541,
    0.9291351437568665,
    0.2102019041776657,
    0.04388769343495369
   ],
   "scale": [
    1,
    0.9999996423721313,
    1
   ],
   "translation": [
    0.02461002953350544,
    0.03185515105724335,
    0.031509991735219955
   ]
  },
  {
   "children": [
    3,
    7,
    11,
    15,
    19
   ],
   "name": "hand_l",
   "rotation": [
    -0.015807557851076126,
    -0.0000011919416920136428,
    -1.3881328086995381e-8,
    0.9998750686645508
   ],
   "scale": [
    1,
    1,
    0.9999999403953552
   ],
   "translation": [
    8.899006331830606e-8,
    0.2764831483364105,
    -1.2449845598894171e-8
   ]
  },
  {
   "children": [
    20
   ],
   "name": "lowerarm_l",
   "rotation": [
    0.03093815967440605,
    0.000042388772271806374,
    -0.0000012546769312393735,
    0.9995213150978088
   ],
   "translation": [
    -1.3307453627930954e-7,
    0.28878211975097656,
    -1.775333657860756e-9
   ]
  },
  {
   "children": [
    21
   ],
   "name": "upperarm_l",
   "rotation": [
    0.16515184938907623,
    0.6876330971717834,
    -0.16469806432724,
    0.6875755786895752
   ],
   "scale": [
    0.9999998807907104,
    0.9999998807907104,
    1
   ],
   "translation": [
    -0.011087228544056416,
    0.21655051410198212,
    -0.04562291502952576
   ]
  },
  {
   "children": [
    22
   ],
   "name": "clavicle_l",
   "rotation": [
    -0.5359424352645874,
    -0.317253053188324,
    -0.3989512324333191,
    0.6730186939239502
   ],
   "translation": [
    0.05376479774713516,
    0.19977542757987976,
    0.07742781192064285
   ]
  },
  {
   "name": "index_04_leaf_r",
   "rotation": [
    -6.239861249923706e-8,
    1,
    -1.69229783181582e-13,
    0.000003532567461661529
   ],
   "translation": [
    -5.987203621771187e-9,
    0.02772669680416584,
    2.8136622631791397e-7
   ]
  },
  {
   "children": [
    24
   ],
   "name": "index_03_r",
   "rotation": [
    -1.3366996398644915e-9,
    2.023342604573486e-11,
    0.00018561957404017448,
    1
   ],
   "translation": [
    3.3260221243835986e-9,
    0.03209828957915306,
    3.9788687899999786e-7
   ]
  },
  {
   "children": [
    25
   ],
   "name": "index_02_r",
   "rotation": [
    3.910318735478313e-9,
    -5.1328541417206e-8,
    0.0005329666309989989,
    0.9999998807907104
   ],
   "translation": [
    2.862179826479405e-9,
    0.037504203617572784,
    2.8511436767075793e-7
   ]
  },
  {
   "children": [
    26
   ],
   "name": "index_01_r",
   "rotation": [
    -0.009757902473211288,
    -0.7070370316505432,
    0.009757816791534424,
    0.7070419192314148
   ],
   "scale": [
    1,
    1.0000001192092896,
    1
   ],
   "translation": [
    -0.010810005478560925,
    0.13225007057189941,
    0.03737497329711914
   ]
  },
  {
   "name": "middle_04_leaf_r",
   "rotation": [
    -6.332993507385254e-8,
    1,
    -2.5121994328553e-13,
    0.000003532567461661529
   ],
   "translation": [
    -1.190528564620763e-8,
    0.035097815096378326,
    1.1670712751765677e-7
   ]
  },
  {
   "children": [
    28
   ],
   "name": "middle_03_r",
   "rotation": [
    -1.0224367130717837e-8,
    1.565823581906045e-10,
    0.001419685548171401,
    0.9999989867210388
   ],
   "scale": [
    0.9999998807907104,
    0.9999998807907104,
    1
   ],
   "translation": [
    -7.303242455236614e-10,
    0.034634049981832504,
    -2.3193081233330304e-8
   ]
  },
  {
   "children": [
    29
   ],
   "name": "middle_02_r",
   "rotation": [
    2.0207707507324812e-8,
    -5.099384381423988e-8,
    -0.0020526822190731764,
    0.9999979138374329
   ],
   "translation": [
    8.039933163672686e-10,
    0.043155089020729065,
    2.512422554445948e-7
   ]
  },
  {
   "children": [
    30
   ],
   "name": "middle_01_r",
   "rotation": [
    -0.01319248415529728,
    -0.7069812417030334,
    0.01319237519055605,
    0.7069861888885498
   ],
   "scale": [
    1,
    1.0000001192092896,
    1
   ],
   "translation": [
    -0.00804994348436594,
    0.1294899582862854,
    0.008050000295042992
   ]
  },
  {
   "name": "pinky_04_leaf_r",
   "rotation": [
    -9.313185778125899e-10,
    1,
    -3.774757436692585e-15,
    0.0000035325672342878534
   ],
   "translation": [
    -1.379976311000064e-8,
    0.024751558899879456,
    -2.2942538180359406e-7
   ]
  },
  {
   "children": [
    32
   ],
   "name": "pinky_03_r",
   "rotation": [
    3.3537057575472318e-9,
    -5.344525863537619e-11,
    -0.0004655654774978757,
    0.9999998807907104
   ],
   "scale": [
    0.9999999403953552,
    0.9999998807907104,
    1
   ],
   "translation": [
    1.0986695997416973e-9,
    0.03154543414711952,
    1.5594224578308058e-8
   ]
  },
  {
   "children": [
    33
   ],
   "name": "pinky_02_r",
   "rotation": [
    -5.277157821836909e-9,
    -5.007911596521808e-8,
    0.0015672857407480478,
    0.9999988079071045
   ],
   "scale": [
    0.9999999403953552,
    0.9999998807907104,
    1
   ],
   "translation": [
    -1.7985257727559656e-8,
    0.03637564182281494,
    2.357258779284166e-7
   ]
  },
  {
   "children": [
    34
   ],
   "name": "pinky_01_r",
   "rotation": [
    -0.015652315691113472,
    -0.7069310545921326,
    0.015652189031243324,
    0.7069360017776489
   ],
   "translation": [
    -0.010350069031119347,
    0.10936498641967773,
    -0.04887496307492256
   ]
  },
  {
   "name": "ring_04_leaf_r",
   "rotation": [
    1.74623018267539e-8,
    1,
    2.0174659198009953e-13,
    0.000003651776296464959
   ],
   "translation": [
    -1.5031218936201185e-8,
    0.033466652035713196,
    5.4636885238323885e-8
   ]
  },
  {
   "children": [
    36
   ],
   "name": "ring_03_r",
   "rotation": [
    -2.519398911715598e-8,
    3.659255676247142e-10,
    0.003387553384527564,
    0.9999942779541016
   ],
   "scale": [
    0.9999999403953552,
    1,
    1
   ],
   "translation": [
    2.1522282622754574e-8,
    0.032545268535614014,
    1.2352199973975075e-7
   ]
  },
  {
   "children": [
    37
   ],
   "name": "ring_02_r",
   "rotation": [
    1.666343685258198e-8,
    -5.257560786731119e-8,
    -0.002399571007117629,
    0.9999971389770508
   ],
   "scale": [
    1,
    0.9999999403953552,
    1
   ],
   "translation": [
    6.4819687395356596e-9,
    0.0414014607667923,
    2.6516460138736875e-7
   ]
  },
  {
   "children": [
    38
   ],
   "name": "ring_01_r",
   "rotation": [
    -0.0029461283702403307,
    -0.7070980072021484,
    0.0029461069498211145,
    0.7071032524108887
   ],
   "translation": [
    -0.008395045064389706,
    0.12213003635406494,
    -0.023459987714886665
   ]
  },
  {
   "name": "thumb_04_leaf_r",
   "rotation": [
    2.0611777173940027e-8,
    -0.4282083809375763,
    2.5764721467425034e-9,
    0.9036800265312195
   ],
   "translation": [
    3.655441105365753e-7,
    0.039789699018001556,
    4.71482053399086e-8
   ]
  },
  {
   "children": [
    40
   ],
   "name": "thumb_03_r",
   "rotation": [
    -0.0003729687014129013,
    -0.00002648961526574567,
    -0.00011380158684914932,
    0.9999999403953552
   ],
   "scale": [
    0.9999999403953552,
    1,
    0.9999998807907104
   ],
   "translation": [
    -3.237510100007057e-7,
    0.04511207342147827,
    -2.9103830456733704e-8
   ]
  },
  {
   "children": [
    41
   ],
   "name": "thumb_02_r",
   "rotation": [
    0.0008557630353607237,
    -0.00003443939931457862,
    0.0004893818986602128,
    0.9999995231628418
   ],
   "scale": [
    0.9999998807907104,
    0.9999999403953552,
    0.9999999403953552
   ],
   "translation": [
    1.284060999751091e-7,
    0.045500315725803375,
    -1.0011717677116394e-7
   ]
  },
  {
   "children": [
    42
   ],
   "name": "thumb_01_r",
   "rotation": [
    0.30099382996559143,
    -0.9291350245475769,
    -0.2102016806602478,
    0.043887361884117126
   ],
   "scale": [
    0.9999999403953552,
    1,
    1
   ],
   "translation": [
    -0.02460991032421589,
    0.03185504674911499,
    0.03150997683405876
   ]
  },
  {
   "children": [
    27,
    31,
    35,
    39,
    43
   ],
   "name": "hand_r",
   "rotation": [
    -0.015807557851076126,
    0.0000013111283578837174,
    1.57660675625948e-8,
    0.9998750686645508
   ],
   "translation": [
    -3.5138481280228007e-7,
    0.27648308873176575,
    3.5424818634055555e-10
   ]
  },
  {
   "children": [
    44
   ],
   "name": "lowerarm_r",
   "rotation": [
    0.030938128009438515,
    -0.00004252981671015732,
    0.0000012554213526527747,
    0.9995213150978088
   ],
   "scale": [
    1,
    0.9999998807907104,
    1
   ],
   "translation": [
    1.2885834621556569e-8,
    0.28878211975097656,
    -4.831235855817795e-9
   ]
  },
  {
   "children": [
    45
   ],
   "name": "upperarm_r",
   "rotation": [
    0.16515187919139862,
    -0.6876331567764282,
    0.16469810903072357,
    0.6875755190849304
   ],
   "scale": [
    1.0000001192092896,
    1.0000003576278687,
    1.0000001192092896
   ],
   "translation": [
    0.01108723133802414,
    0.21655049920082092,
    -0.04562278464436531
   ]
  },
  {
   "children": [
    46
   ],
   "name": "clavicle_r",
   "rotation": [
    -0.5359424948692322,
    0.3172530233860016,
    0.39895114302635193,
    0.6730186939239502
   ],
   "scale": [
    1,
    1.0000001192092896,
    1
   ],
   "translation": [
    -0.05376480519771576,
    0.19977542757987976,
    0.07742781937122345
   ]
  },
  {
   "name": "Head",
   "rotation": [
    -0.13206999003887177,
    -2.2873312133242507e-8,
    -5.753567400290649e-9,
    0.991240382194519
   ],
   "scale": [
    1,
    0.9999999403953552,
    1
   ],
   "translation": [
    -1.2993360473521247e-15,
    0.09528037160634995,
    -7.450580596923828e-9
   ]
  },
  {
   "children": [
    48
   ],
   "name": "neck_01",
   "rotation": [
    0.2572591006755829,
    3.3992981762764884e-9,
    1.6238780986554957e-8,
    0.9663424491882324
   ],
   "translation": [
    -2.504096207462097e-15,
    0.24735699594020844,
    2.9802322387695312e-8
   ]
  },
  {
   "children": [
    23,
    47,
    49
   ],
   "name": "spine_03",
   "rotation": [
    -0.12418896704912186,
    -6.394204632442779e-8,
    -1.5405081654762398e-8,
    0.992258608341217
   ],
   "scale": [
    1,
    0.9999999403953552,
    0.9999999403953552
   ],
   "translation": [
    1.6037290895301007e-15,
    0.1531038135290146,
    -2.7939677238464355e-9
   ]
  },
  {
   "children": [
    50
   ],
   "name": "spine_02",
   "rotation": [
    -0.0395854227244854,
    6.066800040116505e-8,
    -5.057862573210059e-9,
    0.9992161989212036
   ],
   "translation": [
    7.435795194502123e-16,
    0.12230212241411209,
    -1.3969838619232178e-9
   ]
  },
  {
   "children": [
    51
   ],
   "name": "spine_01",
   "rotation": [
    -0.09185563027858734,
    -4.0804980727671136e-8,
    -9.923478039297606e-9,
    0.9957723617553711
   ],
   "translation": [
    -2.942089744707244e-15,
    0.14730601012706757,
    3.4924596548080444e-8
   ]
  },
  {
   "name": "ball_leaf_l",
   "rotation": [
    1.4901146982992941e-8,
    -1.0219526558330472e-7,
    1.5189256331586578e-15,
    1
   ],
   "translation": [
    -3.5681253507391375e-9,
    0.09073518961668015,
    7.45092876286435e-11
   ]
  },
  {
   "children": [
    53
   ],
   "name": "ball_l",
   "rotation": [
    9.185166049974214e-8,
    0.9731197953224182,
    -0.23029963672161102,
    1.894734111829166e-7
   ],
   "scale": [
    1,
    0.9999997019767761,
    1
   ],
   "translation": [
    3.657698144365895e-9,
    0.1829354166984558,
    -2.0115209053983563e-8
   ]
  },
  {
   "children": [
    54
   ],
   "name": "foot_l",
   "rotation": [
    -0.5721685886383057,
    2.4064934223133605e-7,
    -1.717172182225113e-7,
    0.8201360702514648
   ],
   "translation": [
    -7.435453364124101e-10,
    0.527606725692749,
    -1.0478845346995058e-8
   ]
  },
  {
   "children": [
    55
   ],
   "name": "calf_l",
   "rotation": [
    0.055989209562540054,
    -1.1849954795195572e-8,
    -6.460768586791232e-10,
    0.998431384563446
   ],
   "translation": [
    -3.3587381764732527e-9,
    0.49312010407447815,
    4.358346572530536e-9
   ]
  },
  {
   "children": [
    56
   ],
   "name": "thigh_l",
   "rotation": [
    0.9898310303688049,
    -1.0113036630343686e-8,
    8.895307246348239e-8,
    0.14224806427955627
   ],
   "scale": [
    1,
    0.9999999403953552,
    0.9999983310699463
   ],
   "translation": [
    0.10418999195098877,
    0.026653487235307693,
    0.0005609474028460681
   ]
  },
  {
   "name": "ball_leaf_r",
   "rotation": [
    1.4901146982992941e-8,
    -1.0219527979415943e-7,
    1.5189324094222359e-15,
    1
   ],
   "translation": [
    -3.5681253507391375e-9,
    0.09073518961668015,
    1.632564305964479e-9
   ]
  },
  {
   "children": [
    58
   ],
   "name": "ball_r",
   "rotation": [
    9.185168892145157e-8,
    0.9731197953224182,
    -0.23029963672161102,
    1.894734111829166e-7
   ],
   "scale": [
    1,
    0.9999997019767761,
    1
   ],
   "translation": [
    -3.792880676201094e-9,
    0.1829354166984558,
    -2.4588274527559406e-8
   ]
  },
  {
   "children": [
    59
   ],
   "name": "foot_r",
   "rotation": [
    -0.5721685886383057,
    2.4064934223133605e-7,
    -1.717172182225113e-7,
    0.8201360702514648
   ],
   "translation": [
    -7.435466131688884e-10,
    0.527606725692749,
    -1.1872897331954846e-8
   ]
  },
  {
   "children": [
    60
   ],
   "name": "calf_r",
   "rotation": [
    0.055989209562540054,
    -1.1849949466125054e-8,
    -6.460761370341572e-10,
    0.998431384563446
   ],
   "translation": [
    1.1542423017374404e-8,
    0.49312010407447815,
    5.50785195230219e-9
   ]
  },
  {
   "children": [
    61
   ],
   "name": "thigh_r",
   "rotation": [
    0.9898310303688049,
    -1.0113036630343686e-8,
    8.895307246348239e-8,
    0.14224806427955627
   ],
   "scale": [
    1,
    0.9999999403953552,
    0.9999983310699463
   ],
   "translation": [
    -0.10418999195098877,
    0.026653485372662544,
    0.0005609163199551404
   ]
  },
  {
   "children": [
    52,
    57,
    62
   ],
   "name": "pelvis",
   "rotation": [
    0.8005707263946533,
    4.4646746744092525e-8,
    5.964719207440794e-8,
    0.5992382764816284
   ],
   "translation": [
    0,
    0.049449920654296875,
    1.091464877128601
   ]
  },
  {
   "children": [
    63
   ],
   "name": "root",
   "rotation": [
    -0.7071067690849304,
    0,
    0,
    0.7071067690849304
   ]
  },
  {
   "mesh": 0,
   "name": "Hair_Beard",
   "skin": 0
  },
  {
   "children": [
    65,
    64
   ],
   "name": "Armature"
  }
 ],
 "materials": [
  {
   "doubleSided": true,
   "name": "MI_Hair_1",
   "normalTexture": {
    "index": 0
   },
   "pbrMetallicRoughness": {
    "baseColorTexture": {
     "index": 1
    },
    "metallicFactor": 0
   }
  }
 ],
 "meshes": [
  {
   "name": "Plane.006",
   "primitives": [
    {
     "attributes": {
      "POSITION": 0,
      "NORMAL": 1,
      "TEXCOORD_0": 2,
      "JOINTS_0": 3,
      "WEIGHTS_0": 4
     },
     "indices": 5,
     "material": 0
    }
   ]
  }
 ],
 "skins": [
  {
   "inverseBindMatrices": 6,
   "joints": [
    64,
    63,
    52,
    51,
    50,
    23,
    22,
    21,
    20,
    3,
    2,
    1,
    0,
    7,
    6,
    5,
    4,
    11,
    10,
    9,
    8,
    15,
    14,
    13,
    12,
    19,
    18,
    17,
    16,
    47,
    46,
    45,
    44,
    27,
    26,
    25,
    24,
    31,
    30,
    29,
    28,
    35,
    34,
    33,
    32,
    39,
    38,
    37,
    36,
    43,
    42,
    41,
    40,
    49,
    48,
    57,
    56,
    55,
    54,
    53,
    62,
    61,
    60,
    59,
    58
   ],
   "name": "Armature"
  }
 ],
 "accessors": [
  {
   "bufferView": 0,
   "componentType": 5126,
   "count": 596,
   "max": [
    0.08822270482778549,
    1.9376049041748047,
    0.10478666424751282
   ],
   "min": [
    -0.08822270482778549,
    1.7848564386367798,
    -0.00985453650355339
   ],
   "type": "VEC3"
  },
  {
   "bufferView": 1,
   "componentType": 5126,
   "count": 596,
   "type": "VEC3"
  },
  {
   "bufferView": 2,
   "componentType": 5126,
   "count": 596,
   "type": "VEC2"
  },
  {
   "bufferView": 3,
   "componentType": 5121,
   "count": 596,
   "type": "VEC4"
  },
  {
   "bufferView": 4,
   "componentType": 5126,
   "count": 596,
   "type": "VEC4"
  },
  {
   "bufferView": 5,
   "componentType": 5123,
   "count": 3102,
   "type": "SCALAR"
  },
  {
   "bufferView": 6,
   "componentType": 5126,
   "count": 65,
   "type": "MAT4"
  }
 ],
 "bufferViews": [
  {
   "buffer": 0,
   "byteLength": 7152,
   "byteOffset": 0,
   "target": 34962
  },
  {
   "buffer": 0,
   "byteLength": 7152,
   "byteOffset": 7152,
   "target": 34962
  },
  {
   "buffer": 0,
   "byteLength": 4768,
   "byteOffset": 14304,
   "target": 34962
  },
  {
   "buffer": 0,
   "byteLength": 2384,
   "byteOffset": 19072,
   "target": 34962
  },
  {
   "buffer": 0,
   "byteLength": 9536,
   "byteOffset": 21456,
   "target": 34962
  },
  {
   "buffer": 0,
   "byteLength": 6204,
   "byteOffset": 30992,
   "target": 34963
  },
  {
   "buffer": 0,
   "byteLength": 4160,
   "byteOffset": 37196
  }
 ],
 "buffers": [
  {
   "byteLength": 41356,
   "uri": "Hair_Beard_Tall.bin"
  }
 ],
 "textures": [
  {
   "sampler": 0,
   "source": 0
  },
  {
   "sampler": 0,
   "source": 1
  }
 ],
 "images": [
  {
   "mimeType": "image/png",
   "name": "T_Hair_1_Normal",
   "uri": "T_Hair_1_Normal.png"
  },
  {
   "mimeType": "image/png",
   "name": "T_Hair_1_BaseColor",
   "uri": "T_Hair_1_BaseColor.png"
  }
 ],
 "samplers": [
  {
   "magFilter": 9729,
   "minFilter": 9987
  }
 ]
}
