{
 "asset": {
  "generator": "Khronos glTF Blender I/O v5.2.40",
  "version": "2.0"
 },
 "scene": 0,
 "scenes": [
  {
   "name": "Scene",
   "nodes": [
    68
   ]
  }
 ],
 "nodes": [
  {
   "name": "index_04_leaf_l",
   "rotation": [
    -3.31017844246162e-8,
    0.9998229742050171,
    1.9898716008270867e-9,
    0.018816029652953148
   ],
   "scale": [
    1,
    0.9999997615814209,
    1.0000001192092896
   ],
   "translation": [
    -5.479705578181893e-9,
    0.027726488187909126,
    -2.2221138351596892e-7
   ]
  },
  {
   "children": [
    0
   ],
   "name": "index_03_l",
   "rotation": [
    0.0000015394845149785397,
    -0.000006990072506596334,
    -0.00018567059305496514,
    1
   ],
   "scale": [
    1,
    1,
    1.0000001192092896
   ],
   "translation": [
    2.764863893389702e-10,
    0.03209804370999336,
    -1.243915903614834e-7
   ]
  },
  {
   "children": [
    1
   ],
   "name": "index_02_l",
   "rotation": [
    0.000002298210119988653,
    0.00004956205884809606,
    -0.0005329979467205703,
    0.9999998807907104
   ],
   "scale": [
    0.9999999403953552,
    0.9999999403953552,
    1
   ],
   "translation": [
    -4.976755008101463e-9,
    0.037504397332668304,
    1.4552460925187916e-7
   ]
  },
  {
   "children": [
    2
   ],
   "name": "index_01_l",
   "rotation": [
    0.008504567667841911,
    0.7068115472793579,
    -0.0185236856341362,
    0.707108199596405
   ],
   "scale": [
    1,
    1.0000001192092896,
    1.0000001192092896
   ],
   "translation": [
    0.008233432658016682,
    0.1350129246711731,
    0.04673982039093971
   ]
  },
  {
   "name": "middle_04_leaf_l",
   "rotation": [
    4.463701230861261e-8,
    0.9998255372047424,
    0.0000016315566426783334,
    0.018679801374673843
   ],
   "translation": [
    7.786184141878039e-9,
    0.0350976288318634,
    2.3509710445068777e-7
   ]
  },
  {
   "children": [
    4
   ],
   "name": "middle_03_l",
   "rotation": [
    -8.932611876844021e-7,
    -0.00005426409188657999,
    -0.0014197255950421095,
    0.9999990463256836
   ],
   "scale": [
    0.9999999403953552,
    0.9999999403953552,
    0.9999999403953552
   ],
   "translation": [
    -4.8221409088000655e-9,
    0.034634072333574295,
    -8.301867637783289e-8
   ]
  },
  {
   "children": [
    5
   ],
   "name": "middle_02_l",
   "rotation": [
    -5.547697128349682e-7,
    0.00007837947487132624,
    0.0020527199376374483,
    0.9999979138374329
   ],
   "scale": [
    1,
    1.0000001192092896,
    1.0000001192092896
   ],
   "translation": [
    -4.6566128730773926e-9,
    0.04315505549311638,
    3.199966158717871e-8
   ]
  },
  {
   "children": [
    6
   ],
   "name": "middle_01_l",
   "rotation": [
    0.005067870020866394,
    0.7067628502845764,
    -0.02195865288376808,
    0.7070915102958679
   ],
   "scale": [
    0.9999999403953552,
    0.9999998807907104,
    0.9999998807907104
   ],
   "translation": [
    0.005384931340813637,
    0.13275456428527832,
    0.017380377277731895
   ]
  },
  {
   "name": "pinky_04_leaf_l",
   "rotation": [
    -7.76107640376722e-8,
    0.9998291730880737,
    -8.639766235774005e-8,
    0.018483737483620644
   ],
   "scale": [
    0.9999999403953552,
    0.9999999403953552,
    0.9999999403953552
   ],
   "translation": [
    2.3101165425032377e-9,
    0.024751843884587288,
    -7.8580342233181e-8
   ]
  },
  {
   "children": [
    8
   ],
   "name": "pinky_03_l",
   "rotation": [
    0.0000029931170502095483,
    -0.0001373337145196274,
    0.0004659566911868751,
    0.9999998807907104
   ],
   "scale": [
    0.9999999403953552,
    0.9999998807907104,
    0.9999998807907104
   ],
   "translation": [
    -9.953510016202927e-9,
    0.031545404344797134,
    -8.401548257097602e-8
   ]
  },
  {
   "children": [
    9
   ],
   "name": "pinky_02_l",
   "rotation": [
    3.832379320556356e-7,
    0.00009542819316266105,
    -0.0015674198511987925,
    0.9999987483024597
   ],
   "scale": [
    1.0000001192092896,
    1,
    1
   ],
   "translation": [
    9.90803528111428e-9,
    0.036375537514686584,
    -2.0634615793824196e-7
   ]
  },
  {
   "children": [
    10
   ],
   "name": "pinky_01_l",
   "rotation": [
    0.0026015799958258867,
    0.7066821455955505,
    -0.024415230378508568,
    0.7071049809455872
   ],
   "scale": [
    1.0000001192092896,
    1.000000238418579,
    1
   ],
   "translation": [
    0.006943363696336746,
    0.11332262307405472,
    -0.03980998322367668
   ]
  },
  {
   "name": "ring_04_leaf_l",
   "rotation": [
    -3.427757278018362e-8,
    0.9998185634613037,
    -0.0000017776230833987938,
    0.019049758091568947
   ],
   "scale": [
    0.9999999403953552,
    0.9999999403953552,
    0.9999999403953552
   ],
   "translation": [
    -1.2165401130914688e-8,
    0.033466897904872894,
    4.246066964697093e-8
   ]
  },
  {
   "children": [
    12
   ],
   "name": "ring_03_l",
   "rotation": [
    0.0000039120723158703186,
    -0.0002530474157538265,
    -0.003387628821656108,
    0.9999942183494568
   ],
   "scale": [
    0.9999999403953552,
    1,
    0.9999999403953552
   ],
   "translation": [
    8.761162462178618e-9,
    0.03254524618387222,
    -8.352799341082573e-9
   ]
  },
  {
   "children": [
    13
   ],
   "name": "ring_02_l",
   "rotation": [
    -0.000005094708285469096,
    0.0002187030331697315,
    0.002399714197963476,
    0.9999971389770508
   ],
   "scale": [
    0.9999999403953552,
    0.9999999403953552,
    0.9999999403953552
   ],
   "translation": [
    7.188646122813225e-9,
    0.04140126705169678,
    -1.9499793779687025e-7
   ]
  },
  {
   "children": [
    14
   ],
   "name": "ring_01_l",
   "rotation": [
    0.015324155800044537,
    0.7069170475006104,
    -0.011713470332324505,
    0.7070334553718567
   ],
   "scale": [
    1.0000001192092896,
    1.0000001192092896,
    1
   ],
   "translation": [
    0.005464568268507719,
    0.1258106827735901,
    -0.014225687831640244
   ]
  },
  {
   "name": "thumb_04_leaf_l",
   "rotation": [
    1.2706378527127526e-7,
    0.3827088177204132,
    9.431734326881269e-8,
    0.9238690137863159
   ],
   "scale": [
    0.9999999403953552,
    1,
    0.9999999403953552
   ],
   "translation": [
    -8.754432201385498e-8,
    0.03974177688360214,
    9.546056389808655e-9
   ]
  },
  {
   "children": [
    16
   ],
   "name": "thumb_03_l",
   "rotation": [
    -2.483430137090181e-7,
    -0.00002967089312733151,
    0.000001886859763544635,
    1
   ],
   "scale": [
    0.9999999403953552,
    0.9999998807907104,
    0.9999999403953552
   ],
   "translation": [
    -4.132743924856186e-8,
    0.040814388543367386,
    -3.073364496231079e-8
   ]
  },
  {
   "children": [
    17
   ],
   "name": "thumb_02_l",
   "rotation": [
    8.465286214232037e-7,
    0.000004711851943284273,
    -0.000005628913640975952,
    1
   ],
   "scale": [
    1,
    0.9999999403953552,
    1
   ],
   "translation": [
    -2.742744982242584e-7,
    0.0454479418694973,
    1.0011717677116394e-8
   ]
  },
  {
   "children": [
    18
   ],
   "name": "thumb_01_l",
   "rotation": [
    -0.2444641888141632,
    -0.9435673356056213,
    -0.21606147289276123,
    0.05688011273741722
   ],
   "scale": [
    0.9999999403953552,
    1.000000238418579,
    1
   ],
   "translation": [
    0.031603459268808365,
    0.03888558968901634,
    0.0472225695848465
   ]
  },
  {
   "children": [
    3,
    7,
    11,
    15,
    19
   ],
   "name": "hand_l",
   "rotation": [
    -0.01560167409479618,
    -4.1718666921042313e-7,
    -9.05165187248258e-9,
    0.9998782873153687
   ],
   "scale": [
    1,
    0.9999999403953552,
    0.9999998807907104
   ],
   "translation": [
    -4.952367476107611e-7,
    0.28013306856155396,
    -2.134697751898784e-9
   ]
  },
  {
   "children": [
    20
   ],
   "name": "lowerarm_l",
   "rotation": [
    0.030732207000255585,
    0.000041517705540172756,
    -0.0000014576538660548977,
    0.9995276927947998
   ],
   "scale": [
    1,
    1.0000001192092896,
    1
   ],
   "translation": [
    7.669370916119078e-8,
    0.288782000541687,
    -8.440110832452774e-10
   ]
  },
  {
   "children": [
    21
   ],
   "name": "upperarm_l",
   "rotation": [
    0.14980322122573853,
    0.6911307573318481,
    -0.14938828349113464,
    0.6910719275474548
   ],
   "scale": [
    1,
    1,
    0.9999999403953552
   ],
   "translation": [
    -0.01050610188394785,
    0.23659983277320862,
    -0.04562189802527428
   ]
  },
  {
   "children": [
    22
   ],
   "name": "clavicle_l",
   "rotation": [
    -0.5287374258041382,
    -0.32910189032554626,
    -0.41380807757377625,
    0.6639966368675232
   ],
   "scale": [
    1,
    1,
    0.9999998807907104
   ],
   "translation": [
    0.053764790296554565,
    0.1997753232717514,
    0.07742777466773987
   ]
  },
  {
   "name": "index_04_leaf_r",
   "rotation": [
    -3.71537627052998e-11,
    -0.9998229742050171,
    -5.746749742741031e-10,
    0.018816031515598297
   ],
   "scale": [
    0.9999999403953552,
    1,
    1.0000001192092896
   ],
   "translation": [
    3.7080098991282284e-9,
    0.027726493775844574,
    -1.0051189747173339e-7
   ]
  },
  {
   "children": [
    24
   ],
   "name": "index_03_r",
   "rotation": [
    0.000001541714141239936,
    0.000007109270882210694,
    0.00018564780475571752,
    1
   ],
   "scale": [
    0.9999999403953552,
    0.9999999403953552,
    1
   ],
   "translation": [
    8.440110832452774e-10,
    0.03209798410534859,
    -1.1863085092045367e-7
   ]
  },
  {
   "children": [
    25
   ],
   "name": "index_02_r",
   "rotation": [
    0.0000022391529910237296,
    -0.00004942668238072656,
    0.0005330766434781253,
    0.9999998807907104
   ],
   "scale": [
    0.9999999403953552,
    1,
    1
   ],
   "translation": [
    4.802132025361061e-9,
    0.03750431165099144,
    1.5148361853789538e-7
   ]
  },
  {
   "children": [
    26
   ],
   "name": "index_01_r",
   "rotation": [
    0.008504634723067284,
    -0.706811785697937,
    0.018523702397942543,
    0.7071079611778259
   ],
   "scale": [
    1,
    1.0000001192092896,
    1.0000001192092896
   ],
   "translation": [
    -0.008233313448727131,
    0.13501301407814026,
    0.046739835292100906
   ]
  },
  {
   "name": "middle_04_leaf_r",
   "rotation": [
    1.8567291704130184e-8,
    -0.9998255372047424,
    -0.000001760639634085237,
    0.018679680302739143
   ],
   "translation": [
    8.913048077374697e-11,
    0.03509775176644325,
    3.7593417800962925e-7
   ]
  },
  {
   "children": [
    28
   ],
   "name": "middle_03_r",
   "rotation": [
    -0.000001092904199140321,
    0.00005431461613625288,
    0.001419772277586162,
    0.9999989867210388
   ],
   "scale": [
    0.9999999403953552,
    0.9999998807907104,
    0.9999999403953552
   ],
   "translation": [
    -9.76797309704125e-10,
    0.034634072333574295,
    -1.1537485988810658e-7
   ]
  },
  {
   "children": [
    29
   ],
   "name": "middle_02_r",
   "rotation": [
    -4.846370984523674e-7,
    -0.00007836169243091717,
    -0.002052775351330638,
    0.9999979138374329
   ],
   "scale": [
    1,
    0.9999999403953552,
    1.0000001192092896
   ],
   "translation": [
    6.9512680056504905e-9,
    0.04315507039427757,
    3.174500307068229e-8
   ]
  },
  {
   "children": [
    30
   ],
   "name": "middle_01_r",
   "rotation": [
    0.005067882593721151,
    -0.7067627906799316,
    0.02195862866938114,
    0.7070915699005127
   ],
   "scale": [
    0.9999999403953552,
    0.9999998211860657,
    0.9999998807907104
   ],
   "translation": [
    -0.005384812131524086,
    0.13275466859340668,
    0.01738038845360279
   ]
  },
  {
   "name": "pinky_04_leaf_r",
   "rotation": [
    8.851606669857404e-10,
    -0.9998291730880737,
    2.1495034641105804e-9,
    0.018483733758330345
   ],
   "scale": [
    1,
    0.9999997019767761,
    1
   ],
   "translation": [
    -1.6689227777533233e-9,
    0.02475191466510296,
    1.045264070853591e-7
   ]
  },
  {
   "children": [
    32
   ],
   "name": "pinky_03_r",
   "rotation": [
    0.0000029112356969562825,
    0.00013736110122408718,
    -0.00046599964844062924,
    0.9999998807907104
   ],
   "scale": [
    0.9999999403953552,
    0.9999999403953552,
    1
   ],
   "translation": [
    1.8277205526828766e-8,
    0.03154532611370087,
    -6.281334208324552e-8
   ]
  },
  {
   "children": [
    33
   ],
   "name": "pinky_02_r",
   "rotation": [
    3.7958446341690433e-7,
    -0.00009535456047160551,
    0.0015675288159400225,
    0.9999988079071045
   ],
   "scale": [
    1,
    1,
    0.9999999403953552
   ],
   "translation": [
    -1.9029357645194978e-8,
    0.03637566789984703,
    -1.8675928004086018e-7
   ]
  },
  {
   "children": [
    34
   ],
   "name": "pinky_01_r",
   "rotation": [
    0.002601578366011381,
    -0.7066822052001953,
    0.024415219202637672,
    0.7071049213409424
   ],
   "scale": [
    1,
    0.9999999403953552,
    1
   ],
   "translation": [
    -0.0069432444870471954,
    0.11332273483276367,
    -0.039809972047805786
   ]
  },
  {
   "name": "ring_04_leaf_r",
   "rotation": [
    -1.4567793016340147e-7,
    -0.9998185634613037,
    0.0000017779119616534445,
    0.019049758091568947
   ],
   "scale": [
    0.9999999403953552,
    1,
    1
   ],
   "translation": [
    7.392372936010361e-9,
    0.033466942608356476,
    1.5730074665043503e-7
   ]
  },
  {
   "children": [
    36
   ],
   "name": "ring_03_r",
   "rotation": [
    0.000003951101916754851,
    0.0002528442710172385,
    0.003387617878615856,
    0.9999942183494568
   ],
   "translation": [
    -2.0161678548902273e-8,
    0.03254523128271103,
    -9.358700481243432e-8
   ]
  },
  {
   "children": [
    37
   ],
   "name": "ring_02_r",
   "rotation": [
    -0.0000051790511861327104,
    -0.00021848366304766387,
    -0.002399792429059744,
    0.9999971389770508
   ],
   "scale": [
    0.9999999403953552,
    0.9999999403953552,
    0.9999999403953552
   ],
   "translation": [
    -8.149072527885437e-10,
    0.041401222348213196,
    -1.7029378795996308e-7
   ]
  },
  {
   "children": [
    38
   ],
   "name": "ring_01_r",
   "rotation": [
    0.015324133448302746,
    -0.7069171071052551,
    0.011713564395904541,
    0.7070333957672119
   ],
   "scale": [
    1.0000001192092896,
    1,
    1
   ],
   "translation": [
    -0.005464449059218168,
    0.12581080198287964,
    -0.014225675724446774
   ]
  },
  {
   "name": "thumb_04_leaf_r",
   "rotation": [
    5.422459139481361e-7,
    -0.3827088475227356,
    0.0000012093977375116083,
    0.9238690137863159
   ],
   "scale": [
    0.9999999403953552,
    1,
    1
   ],
   "translation": [
    6.332993507385254e-8,
    0.0397418737411499,
    4.1211023926734924e-8
   ]
  },
  {
   "children": [
    40
   ],
   "name": "thumb_03_r",
   "rotation": [
    -3.361638221122121e-7,
    0.00002960075107694138,
    -0.000003624707687777118,
    1
   ],
   "scale": [
    1,
    0.9999999403953552,
    0.9999999403953552
   ],
   "translation": [
    2.5262124836444855e-8,
    0.04081438481807709,
    -3.795139491558075e-8
   ]
  },
  {
   "children": [
    41
   ],
   "name": "thumb_02_r",
   "rotation": [
    9.379147059007664e-7,
    -0.000004712259851658018,
    0.000004945323325955542,
    1
   ],
   "scale": [
    0.9999999403953552,
    0.9999999403953552,
    0.9999998807907104
   ],
   "translation": [
    5.820766091346741e-9,
    0.04544797167181969,
    5.3551048040390015e-8
   ]
  },
  {
   "children": [
    42
   ],
   "name": "thumb_01_r",
   "rotation": [
    -0.24446339905261993,
    0.9435675144195557,
    0.21606166660785675,
    0.05688010901212692
   ],
   "scale": [
    1,
    1.000000238418579,
    0.9999998807907104
   ],
   "translation": [
    -0.031603340059518814,
    0.038885749876499176,
    0.04722258448600769
   ]
  },
  {
   "children": [
    27,
    31,
    35,
    39,
    43
   ],
   "name": "hand_r",
   "rotation": [
    -0.015601662918925285,
    5.959716418146854e-7,
    1.184083764371735e-8,
    0.9998782873153687
   ],
   "scale": [
    1,
    0.9999999403953552,
    0.9999999403953552
   ],
   "translation": [
    3.398833143819502e-7,
    0.28013330698013306,
    1.3444605428958312e-9
   ]
  },
  {
   "children": [
    44
   ],
   "name": "lowerarm_r",
   "rotation": [
    0.030732179060578346,
    -0.000041765972127905115,
    0.0000014505982335322187,
    0.9995276927947998
   ],
   "translation": [
    -6.326615675789071e-8,
    0.28878211975097656,
    -3.637978807091713e-10
   ]
  },
  {
   "children": [
    45
   ],
   "name": "upperarm_r",
   "rotation": [
    0.14980319142341614,
    -0.6911307573318481,
    0.14938826858997345,
    0.6910719275474548
   ],
   "translation": [
    0.010506120510399342,
    0.23659981787204742,
    -0.04562189429998398
   ]
  },
  {
   "children": [
    46
   ],
   "name": "clavicle_r",
   "rotation": [
    -0.5287374258041382,
    0.3291018605232239,
    0.41380804777145386,
    0.663996696472168
   ],
   "scale": [
    1,
    0.9999998807907104,
    0.9999998807907104
   ],
   "translation": [
    -0.05376479774713516,
    0.1997753232717514,
    0.07742777466773987
   ]
  },
  {
   "name": "Head",
   "rotation": [
    -0.13206994533538818,
    -2.2873326344097222e-8,
    -5.7535718411827474e-9,
    0.991240382194519
   ],
   "translation": [
    4.112798121546409e-16,
    0.0952802523970604,
    -2.0489096641540527e-8
   ]
  },
  {
   "children": [
    48
   ],
   "name": "neck_01",
   "rotation": [
    0.2572590708732605,
    3.399314607577253e-9,
    1.6238788091982315e-8,
    0.9663424491882324
   ],
   "translation": [
    -1.3431556028124314e-15,
    0.24735699594020844,
    2.60770320892334e-8
   ]
  },
  {
   "children": [
    23,
    47,
    49
   ],
   "name": "spine_03",
   "rotation": [
    -0.12418895959854126,
    -6.394203211357308e-8,
    -1.5405081654762398e-8,
    0.992258608341217
   ],
   "scale": [
    1,
    1,
    0.9999999403953552
   ],
   "translation": [
    1.5156686855973467e-15,
    0.1531038135290146,
    -4.6566128730773926e-9
   ]
  },
  {
   "children": [
    50
   ],
   "name": "spine_02",
   "rotation": [
    -0.03958539292216301,
    6.066800040116505e-8,
    -5.057857688228751e-9,
    0.9992161989212036
   ],
   "translation": [
    1.5591912501305223e-16,
    0.12230224162340164,
    -1.3969838619232178e-9
   ]
  },
  {
   "children": [
    51
   ],
   "name": "spine_01",
   "rotation": [
    -0.09185582399368286,
    3.7095408966791865e-9,
    -5.817222703541347e-9,
    0.9957723021507263
   ],
   "scale": [
    1,
    0.9999999403953552,
    1
   ],
   "translation": [
    1.1657341758564144e-15,
    0.14730601012706757,
    -1.6298145055770874e-8
   ]
  },
  {
   "name": "ball_leaf_l",
   "rotation": [
    -3.552716643415816e-15,
    -6.68655104618665e-8,
    4.263255736934243e-14,
    1
   ],
   "translation": [
    -2.3462420895015157e-9,
    0.09073500335216522,
    -2.7430449023313486e-9
   ]
  },
  {
   "children": [
    53
   ],
   "name": "ball_l",
   "rotation": [
    1.0320740528868555e-7,
    0.9731196761131287,
    -0.2303001582622528,
    3.0547826668225753e-7
   ],
   "scale": [
    1,
    1.0000001192092896,
    1
   ],
   "translation": [
    -1.1309682079740924e-8,
    0.1829349845647812,
    -2.0898518471312855e-8
   ]
  },
  {
   "children": [
    54
   ],
   "name": "foot_l",
   "rotation": [
    -0.5721683502197266,
    3.0885234991728794e-7,
    -2.205554494594253e-7,
    0.8201361894607544
   ],
   "translation": [
    -9.876062190272705e-10,
    0.5276069641113281,
    -1.0939054106984258e-8
   ]
  },
  {
   "children": [
    55
   ],
   "name": "calf_l",
   "rotation": [
    0.05598907545208931,
    -1.103551827696947e-8,
    -5.6107998247512114e-9,
    0.998431384563446
   ],
   "translation": [
    -9.638772446862731e-9,
    0.4931202530860901,
    1.1373093578015414e-9
   ]
  },
  {
   "children": [
    56
   ],
   "name": "thigh_l",
   "rotation": [
    0.9898310899734497,
    -8.736940060316556e-9,
    4.542038212207444e-8,
    0.14224807918071747
   ],
   "scale": [
    1,
    0.9999999403953552,
    1.0000004768371582
   ],
   "translation": [
    0.13145090639591217,
    0.02665347419679165,
    0.0005609285435639322
   ]
  },
  {
   "name": "ball_leaf_r",
   "rotation": [
    -3.552716643415816e-15,
    6.686540388045614e-8,
    -4.263255736934243e-14,
    1
   ],
   "translation": [
    2.3289099537748825e-9,
    0.09073500335216522,
    -2.6127331409497856e-9
   ]
  },
  {
   "children": [
    58
   ],
   "name": "ball_r",
   "rotation": [
    1.0297906527512168e-7,
    -0.9731196761131287,
    0.2303001582622528,
    3.0547826668225753e-7
   ],
   "scale": [
    1,
    1.0000001192092896,
    1
   ],
   "translation": [
    1.1353131768032654e-8,
    0.1829349845647812,
    -2.1028846219905972e-8
   ]
  },
  {
   "children": [
    59
   ],
   "name": "foot_r",
   "rotation": [
    -0.5721683502197266,
    -3.157337857828679e-7,
    2.1518731330161245e-7,
    0.8201361894607544
   ],
   "translation": [
    -9.87606108004968e-10,
    0.5276069641113281,
    -1.3275332833018183e-8
   ]
  },
  {
   "children": [
    60
   ],
   "name": "calf_r",
   "rotation": [
    0.05598907545208931,
    -1.103551827696947e-8,
    -5.610800712929631e-9,
    0.998431384563446
   ],
   "translation": [
    2.016354905265416e-8,
    0.4931202530860901,
    6.380243000592145e-10
   ]
  },
  {
   "children": [
    61
   ],
   "name": "thigh_r",
   "rotation": [
    0.9898310899734497,
    -8.736940060316556e-9,
    4.542038212207444e-8,
    0.14224807918071747
   ],
   "scale": [
    1,
    0.9999999403953552,
    1.0000004768371582
   ],
   "translation": [
    -0.13145090639591217,
    0.02665347419679165,
    0.0005609128274954855
   ]
  },
  {
   "children": [
    52,
    57,
    62
   ],
   "name": "pelvis",
   "rotation": [
    0.8005708456039429,
    1.785868697368187e-8,
    2.3858870434878554e-8,
    0.5992380976676941
   ],
   "translation": [
    0,
    0.049449920654296875,
    1.091464877128601
   ]
  },
  {
   "children": [
    63
   ],
   "name": "root",
   "rotation": [
    -0.7071067690849304,
    0,
    0,
    0.7071067690849304
   ]
  },
  {
   "mesh": 0,
   "name": "Eyebrows",
   "skin": 0
  },
  {
   "mesh": 1,
   "name": "Eyes",
   "skin": 0
  },
  {
   "mesh": 2,
   "name": "SuperHero_Male",
   "skin": 0
  },
  {
   "children": [
    65,
    66,
    67,
    64
   ],
   "name": "Armature"
  }
 ],
 "materials": [
  {
   "doubleSided": true,
   "name": "MI_Hair_1",
   "normalTexture": {
    "index": 0
   },
   "pbrMetallicRoughness": {
    "baseColorTexture": {
     "index": 1
    },
    "metallicFactor": 0,
    "roughnessFactor": 0.822727262973785
   }
  },
  {
   "doubleSided": true,
   "name": "MI_Eyes",
   "normalTexture": {
    "index": 2
   },
   "pbrMetallicRoughness": {
    "baseColorTexture": {
     "index": 3
    },
    "metallicFactor": 0,
    "roughnessFactor": 0.345454543828964
   }
  },
  {
   "doubleSided": true,
   "name": "MI_Superhero_Male",
   "normalTexture": {
    "index": 4
   },
   "pbrMetallicRoughness": {
    "baseColorTexture": {
     "index": 5
    },
    "metallicFactor": 0,
    "metallicRoughnessTexture": {
     "index": 6
    }
   }
  }
 ],
 "meshes": [
  {
   "name": "Face",
   "primitives": [
    {
     "attributes": {
      "POSITION": 0,
      "NORMAL": 1,
      "TEXCOORD_0": 2,
      "TEXCOORD_1": 3,
      "TEXCOORD_2": 4,
      "TEXCOORD_3": 5,
      "COLOR_0": 6,
      "COLOR_1": 7,
      "COLOR_2": 8,
      "JOINTS_0": 9,
      "WEIGHTS_0": 10
     },
     "indices": 11,
     "material": 0
    }
   ]
  },
  {
   "name": "Face.001",
   "primitives": [
    {
     "attributes": {
      "POSITION": 13,
      "NORMAL": 14,
      "TEXCOORD_0": 15,
      "TEXCOORD_1": 16,
      "TEXCOORD_2": 17,
      "TEXCOORD_3": 18,
      "COLOR_0": 19,
      "COLOR_1": 20,
      "COLOR_2": 21,
      "JOINTS_0": 22,
      "WEIGHTS_0": 23
     },
     "indices": 24,
     "material": 1
    }
   ]
  },
  {
   "name": "Sphere.005_Retopology.004",
   "primitives": [
    {
     "attributes": {
      "POSITION": 25,
      "NORMAL": 26,
      "TEXCOORD_0": 27,
      "TEXCOORD_1": 28,
      "COLOR_0": 29,
      "COLOR_1": 30,
      "COLOR_2": 31,
      "JOINTS_0": 32,
      "WEIGHTS_0": 33
     },
     "indices": 34,
     "material": 2
    }
   ]
  }
 ],
 "skins": [
  {
   "inverseBindMatrices": 12,
   "joints": [
    64,
    63,
    52,
    51,
    50,
    23,
    22,
    21,
    20,
    3,
    2,
    1,
    0,
    7,
    6,
    5,
    4,
    11,
    10,
    9,
    8,
    15,
    14,
    13,
    12,
    19,
    18,
    17,
    16,
    47,
    46,
    45,
    44,
    27,
    26,
    25,
    24,
    31,
    30,
    29,
    28,
    35,
    34,
    33,
    32,
    39,
    38,
    37,
    36,
    43,
    42,
    41,
    40,
    49,
    48,
    57,
    56,
    55,
    54,
    53,
    62,
    61,
    60,
    59,
    58
   ],
   "name": "Armature"
  }
 ],
 "accessors": [
  {
   "bufferView": 0,
   "componentType": 5126,
   "count": 646,
   "max": [
    0.06810706853866577,
    1.97706139087677,
    0.10221658647060394
   ],
   "min": [
    -0.06810706853866577,
    1.9436224699020386,
    0.06118633970618248
   ],
   "type": "VEC3"
  },
  {
   "bufferView": 1,
   "componentType": 5126,
   "count": 646,
   "type": "VEC3"
  },
  {
   "bufferView": 2,
   "componentType": 5126,
   "count": 646,
   "type": "VEC2"
  },
  {
   "bufferView": 3,
   "componentType": 5126,
   "count": 646,
   "type": "VEC2"
  },
  {
   "bufferView": 4,
   "componentType": 5126,
   "count": 646,
   "type": "VEC2"
  },
  {
   "bufferView": 5,
   "componentType": 5126,
   "count": 646,
   "type": "VEC2"
  },
  {
   "bufferView": 6,
   "componentType": 5121,
   "count": 646,
   "normalized": true,
   "type": "VEC4"
  },
  {
   "bufferView": 7,
   "componentType": 5123,
   "count": 646,
   "normalized": true,
   "type": "VEC4"
  },
  {
   "bufferView": 8,
   "componentType": 5123,
   "count": 646,
   "normalized": true,
   "type": "VEC4"
  },
  {
   "bufferView": 9,
   "componentType": 5121,
   "count": 646,
   "type": "VEC4"
  },
  {
   "bufferView": 10,
   "componentType": 5126,
   "count": 646,
   "type": "VEC4"
  },
  {
   "bufferView": 11,
   "componentType": 5123,
   "count": 2952,
   "type": "SCALAR"
  },
  {
   "bufferView": 12,
   "componentType": 5126,
   "count": 65,
   "type": "MAT4"
  },
  {
   "bufferView": 13,
   "componentType": 5126,
   "count": 556,
   "max": [
    0.05325806140899658,
    1.9640358686447144,
    0.0870964527130127
   ],
   "min": [
    -0.05325806140899658,
    1.9313204288482666,
    0.05497269332408905
   ],
   "type": "VEC3"
  },
  {
   "bufferView": 14,
   "componentType": 5126,
   "count": 556,
   "type": "VEC3"
  },
  {
   "bufferView": 15,
   "componentType": 5126,
   "count": 556,
   "type": "VEC2"
  },
  {
   "bufferView": 16,
   "componentType": 5126,
   "count": 556,
   "type": "VEC2"
  },
  {
   "bufferView": 17,
   "componentType": 5126,
   "count": 556,
   "type": "VEC2"
  },
  {
   "bufferView": 18,
   "componentType": 5126,
   "count": 556,
   "type": "VEC2"
  },
  {
   "bufferView": 19,
   "componentType": 5121,
   "count": 556,
   "normalized": true,
   "type": "VEC4"
  },
  {
   "bufferView": 20,
   "componentType": 5123,
   "count": 556,
   "normalized": true,
   "type": "VEC4"
  },
  {
   "bufferView": 21,
   "componentType": 5123,
   "count": 556,
   "normalized": true,
   "type": "VEC4"
  },
  {
   "bufferView": 22,
   "componentType": 5121,
   "count": 556,
   "type": "VEC4"
  },
  {
   "bufferView": 23,
   "componentType": 5126,
   "count": 556,
   "type": "VEC4"
  },
  {
   "bufferView": 24,
   "componentType": 5123,
   "count": 2304,
   "type": "SCALAR"
  },
  {
   "bufferView": 25,
   "componentType": 5126,
   "count": 7283,
   "max": [
    1.0865020751953125,
    2.0694971084594727,
    0.14724302291870117
   ],
   "min": [
    -1.086502194404602,
    -0.01093650795519352,
    -0.1879684180021286
   ],
   "type": "VEC3"
  },
  {
   "bufferView": 26,
   "componentType": 5126,
   "count": 7283,
   "type": "VEC3"
  },
  {
   "bufferView": 27,
   "componentType": 5126,
   "count": 7283,
   "type": "VEC2"
  },
  {
   "bufferView": 28,
   "componentType": 5126,
   "count": 7283,
   "type": "VEC2"
  },
  {
   "bufferView": 29,
   "componentType": 5121,
   "count": 7283,
   "normalized": true,
   "type": "VEC4"
  },
  {
   "bufferView": 30,
   "componentType": 5123,
   "count": 7283,
   "normalized": true,
   "type": "VEC4"
  },
  {
   "bufferView": 31,
   "componentType": 5123,
   "count": 7283,
   "normalized": true,
   "type": "VEC4"
  },
  {
   "bufferView": 32,
   "componentType": 5121,
   "count": 7283,
   "type": "VEC4"
  },
  {
   "bufferView": 33,
   "componentType": 5126,
   "count": 7283,
   "type": "VEC4"
  },
  {
   "bufferView": 34,
   "componentType": 5123,
   "count": 37698,
   "type": "SCALAR"
  }
 ],
 "bufferViews": [
  {
   "buffer": 0,
   "byteLength": 7752,
   "byteOffset": 0,
   "target": 34962
  },
  {
   "buffer": 0,
   "byteLength": 7752,
   "byteOffset": 7752,
   "target": 34962
  },
  {
   "buffer": 0,
   "byteLength": 5168,
   "byteOffset": 15504,
   "target": 34962
  },
  {
   "buffer": 0,
   "byteLength": 5168,
   "byteOffset": 20672,
   "target": 34962
  },
  {
   "buffer": 0,
   "byteLength": 5168,
   "byteOffset": 25840,
   "target": 34962
  },
  {
   "buffer": 0,
   "byteLength": 5168,
   "byteOffset": 31008,
   "target": 34962
  },
  {
   "buffer": 0,
   "byteLength": 2584,
   "byteOffset": 36176,
   "target": 34962
  },
  {
   "buffer": 0,
   "byteLength": 5168,
   "byteOffset": 38760,
   "target": 34962
  },
  {
   "buffer": 0,
   "byteLength": 5168,
   "byteOffset": 43928,
   "target": 34962
  },
  {
   "buffer": 0,
   "byteLength": 2584,
   "byteOffset": 49096,
   "target": 34962
  },
  {
   "buffer": 0,
   "byteLength": 10336,
   "byteOffset": 51680,
   "target": 34962
  },
  {
   "buffer": 0,
   "byteLength": 5904,
   "byteOffset": 62016,
   "target": 34963
  },
  {
   "buffer": 0,
   "byteLength": 4160,
   "byteOffset": 67920
  },
  {
   "buffer": 0,
   "byteLength": 6672,
   "byteOffset": 72080,
   "target": 34962
  },
  {
   "buffer": 0,
   "byteLength": 6672,
   "byteOffset": 78752,
   "target": 34962
  },
  {
   "buffer": 0,
   "byteLength": 4448,
   "byteOffset": 85424,
   "target": 34962
  },
  {
   "buffer": 0,
   "byteLength": 4448,
   "byteOffset": 89872,
   "target": 34962
  },
  {
   "buffer": 0,
   "byteLength": 4448,
   "byteOffset": 94320,
   "target": 34962
  },
  {
   "buffer": 0,
   "byteLength": 4448,
   "byteOffset": 98768,
   "target": 34962
  },
  {
   "buffer": 0,
   "byteLength": 2224,
   "byteOffset": 103216,
   "target": 34962
  },
  {
   "buffer": 0,
   "byteLength": 4448,
   "byteOffset": 105440,
   "target": 34962
  },
  {
   "buffer": 0,
   "byteLength": 4448,
   "byteOffset": 109888,
   "target": 34962
  },
  {
   "buffer": 0,
   "byteLength": 2224,
   "byteOffset": 114336,
   "target": 34962
  },
  {
   "buffer": 0,
   "byteLength": 8896,
   "byteOffset": 116560,
   "target": 34962
  },
  {
   "buffer": 0,
   "byteLength": 4608,
   "byteOffset": 125456,
   "target": 34963
  },
  {
   "buffer": 0,
   "byteLength": 87396,
   "byteOffset": 130064,
   "target": 34962
  },
  {
   "buffer": 0,
   "byteLength": 87396,
   "byteOffset": 217460,
   "target": 34962
  },
  {
   "buffer": 0,
   "byteLength": 58264,
   "byteOffset": 304856,
   "target": 34962
  },
  {
   "buffer": 0,
   "byteLength": 58264,
   "byteOffset": 363120,
   "target": 34962
  },
  {
   "buffer": 0,
   "byteLength": 29132,
   "byteOffset": 421384,
   "target": 34962
  },
  {
   "buffer": 0,
   "byteLength": 58264,
   "byteOffset": 450516,
   "target": 34962
  },
  {
   "buffer": 0,
   "byteLength": 58264,
   "byteOffset": 508780,
   "target": 34962
  },
  {
   "buffer": 0,
   "byteLength": 29132,
   "byteOffset": 567044,
   "target": 34962
  },
  {
   "buffer": 0,
   "byteLength": 116528,
   "byteOffset": 596176,
   "target": 34962
  },
  {
   "buffer": 0,
   "byteLength": 75396,
   "byteOffset": 712704,
   "target": 34963
  }
 ],
 "buffers": [
  {
   "byteLength": 788100,
   "uri": "Superhero_Male_FullBody_Tall.bin"
  }
 ],
 "textures": [
  {
   "sampler": 0,
   "source": 0
  },
  {
   "sampler": 0,
   "source": 1
  },
  {
   "sampler": 0,
   "source": 2
  },
  {
   "sampler": 0,
   "source": 3
  },
  {
   "sampler": 0,
   "source": 4
  },
  {
   "sampler": 0,
   "source": 5
  },
  {
   "sampler": 0,
   "source": 6
  }
 ],
 "images": [
  {
   "mimeType": "image/png",
   "name": "T_Hair_1_Normal.png",
   "uri": "../hair/T_Hair_1_Normal.png"
  },
  {
   "mimeType": "image/png",
   "name": "T_Hair_1_BaseColor",
   "uri": "../hair/T_Hair_1_BaseColor.png"
  },
  {
   "mimeType": "image/png",
   "name": "T_Eye_Normal.png",
   "uri": "T_Eye_Normal.png"
  },
  {
   "mimeType": "image/png",
   "name": "T_Eye_Brown",
   "uri": "T_Eye_Brown.png"
  },
  {
   "mimeType": "image/png",
   "name": "T_Superhero_Male_Normal",
   "uri": "T_Superhero_Male_Normal.png"
  },
  {
   "mimeType": "image/png",
   "name": "T_Superhero_Male_Dark",
   "uri": "T_Superhero_Male_Dark.png"
  },
  {
   "mimeType": "image/png",
   "name": "T_Superhero_Male_Roughness",
   "uri": "T_Superhero_Male_Roughness.png"
  }
 ],
 "samplers": [
  {
   "magFilter": 9729,
   "minFilter": 9987
  }
 ]
}
