{
 "asset": {
  "generator": "Khronos glTF Blender I/O v5.2.40",
  "version": "2.0"
 },
 "scene": 0,
 "scenes": [
  {
   "name": "Scene",
   "nodes": [
    68
   ]
  }
 ],
 "nodes": [
  {
   "name": "index_04_leaf_l",
   "rotation": [
    4.656640628653008e-10,
    1,
    -1.1342607185254022e-14,
    0.000003532567006914178
   ],
   "translation": [
    -2.992237568832934e-10,
    0.027037132531404495,
    -4.323480595758156e-8
   ]
  },
  {
   "children": [
    0
   ],
   "name": "index_03_l",
   "rotation": [
    9.190307403983411e-10,
    9.467537864793485e-12,
    -0.00013327693159226328,
    1
   ],
   "scale": [
    0.9999999403953552,
    0.9999998807907104,
    1
   ],
   "translation": [
    -1.2323653209023178e-9,
    0.031178541481494904,
    -1.6075081532562763e-7
   ]
  },
  {
   "children": [
    1
   ],
   "name": "index_02_l",
   "rotation": [
    1.588924547490933e-8,
    6.624387260956155e-9,
    -0.0021402817219495773,
    0.9999977350234985
   ],
   "scale": [
    0.9999999403953552,
    0.9999999403953552,
    1
   ],
   "translation": [
    4.274625098332763e-11,
    0.03646664321422577,
    -1.3241310625744518e-7
   ]
  },
  {
   "children": [
    2
   ],
   "name": "index_01_l",
   "rotation": [
    -0.003309234045445919,
    0.7071018815040588,
    -0.003309251507744193,
    0.7070961594581604
   ],
   "scale": [
    1,
    0.9999998211860657,
    0.9999999403953552
   ],
   "translation": [
    0.004830115474760532,
    0.10147196054458618,
    0.041635677218437195
   ]
  },
  {
   "name": "middle_04_leaf_l",
   "rotation": [
    9.313214643924539e-10,
    1,
    -6.321332346459485e-15,
    0.000003532567461661529
   ],
   "translation": [
    2.787601260934025e-9,
    0.034063633531332016,
    1.2026609397253196e-7
   ]
  },
  {
   "children": [
    4
   ],
   "name": "middle_03_l",
   "rotation": [
    2.2964599111219286e-8,
    2.0641742481952718e-10,
    -0.0032189292833209038,
    0.9999948143959045
   ],
   "scale": [
    0.9999999403953552,
    1,
    1
   ],
   "translation": [
    -6.524714990518987e-9,
    0.0337107889354229,
    4.3645613345688616e-8
   ]
  },
  {
   "children": [
    5
   ],
   "name": "middle_02_l",
   "rotation": [
    -2.6555204257761034e-8,
    6.628791737739448e-9,
    0.0038676096592098475,
    0.9999925494194031
   ],
   "translation": [
    6.453774403780699e-9,
    0.041890982538461685,
    1.1513066056068055e-7
   ]
  },
  {
   "children": [
    6
   ],
   "name": "middle_01_l",
   "rotation": [
    -0.007979892194271088,
    0.707064688205719,
    -0.007979937829077244,
    0.707058846950531
   ],
   "translation": [
    0.002185065997764468,
    0.09929277002811432,
    0.012272399850189686
   ]
  },
  {
   "name": "pinky_04_leaf_l",
   "rotation": [
    5.58793811222813e-9,
    1,
    -1.8904643746698452e-14,
    0.00000365177675121231
   ],
   "translation": [
    -1.2646523828152567e-8,
    0.02405710518360138,
    -1.933491944328125e-8
   ]
  },
  {
   "children": [
    8
   ],
   "name": "pinky_03_l",
   "rotation": [
    -2.0681200751937467e-8,
    -1.9427007225125692e-10,
    0.002898530103266239,
    0.9999958276748657
   ],
   "translation": [
    -1.470652932766825e-9,
    0.030626581981778145,
    -1.7577974631421966e-7
   ]
  },
  {
   "children": [
    9
   ],
   "name": "pinky_02_l",
   "rotation": [
    1.4743542386952413e-8,
    7.292520809443204e-9,
    -0.0017048221779987216,
    0.9999985694885254
   ],
   "scale": [
    0.9999998807907104,
    0.9999999403953552,
    1
   ],
   "translation": [
    1.266926119569689e-9,
    0.03545656055212021,
    -2.702085737382731e-7
   ]
  },
  {
   "children": [
    10
   ],
   "name": "pinky_01_l",
   "rotation": [
    -0.01044783741235733,
    0.7070325016975403,
    -0.010447896085679531,
    0.7070267200469971
   ],
   "scale": [
    1,
    1.0000001192092896,
    1.0000001192092896
   ],
   "translation": [
    0.004370113369077444,
    0.08044051378965378,
    -0.0390932522714138
   ]
  },
  {
   "name": "ring_04_leaf_l",
   "rotation": [
    2.3283353023373365e-10,
    1,
    -4.25202441886683e-14,
    0.000003651776296464959
   ],
   "translation": [
    8.735696610528976e-9,
    0.032546840608119965,
    -1.148935879768942e-7
   ]
  },
  {
   "children": [
    12
   ],
   "name": "ring_03_l",
   "rotation": [
    2.488228467711906e-8,
    2.3600071896723307e-10,
    -0.003488566493615508,
    0.9999939203262329
   ],
   "scale": [
    1,
    0.9999999403953552,
    1
   ],
   "translation": [
    7.338712748605758e-9,
    0.0317402221262455,
    -1.885539404611336e-7
   ]
  },
  {
   "children": [
    13
   ],
   "name": "ring_02_l",
   "rotation": [
    -1.623417844598407e-8,
    5.745119935340881e-9,
    0.0024740956723690033,
    0.9999969601631165
   ],
   "translation": [
    2.508386387489736e-9,
    0.040251489728689194,
    -3.372933861101046e-7
   ]
  },
  {
   "children": [
    14
   ],
   "name": "ring_01_l",
   "rotation": [
    0.0025808934587985277,
    0.7071049809455872,
    0.002580910222604871,
    0.7070991396903992
   ],
   "scale": [
    0.9999999403953552,
    0.9999997615814209,
    0.9999999403953552
   ],
   "translation": [
    0.0025300253182649612,
    0.09249405562877655,
    -0.01589905470609665
   ]
  },
  {
   "name": "thumb_04_leaf_l",
   "rotation": [
    9.501802651357139e-7,
    0.48539113998413086,
    -0.0000015729367532912875,
    0.8742971420288086
   ],
   "scale": [
    1,
    1.0000001192092896,
    0.9999999403953552
   ],
   "translation": [
    -3.4648110158741474e-7,
    0.0359635166823864,
    0
   ]
  },
  {
   "children": [
    16
   ],
   "name": "thumb_03_l",
   "rotation": [
    -0.0012817003298550844,
    0.000058240311773261055,
    0.00025563070084899664,
    0.9999991655349731
   ],
   "scale": [
    0.9999998807907104,
    0.9999999403953552,
    0.9999999403953552
   ],
   "translation": [
    3.1114541343413293e-7,
    0.04096345975995064,
    -3.259629011154175e-9
   ]
  },
  {
   "children": [
    17
   ],
   "name": "thumb_02_l",
   "rotation": [
    0.001913286978378892,
    0.0001922386436490342,
    -0.0004476157482713461,
    0.9999980330467224
   ],
   "scale": [
    1,
    0.9999999403953552,
    1
   ],
   "translation": [
    9.857467375695705e-8,
    0.04119417816400528,
    1.5832483768463135e-8
   ]
  },
  {
   "children": [
    18
   ],
   "name": "thumb_01_l",
   "rotation": [
    0.2639966309070587,
    0.9450141787528992,
    0.18827416002750397,
    0.042508117854595184
   ],
   "translation": [
    0.011500105261802673,
    -0.003307113889604807,
    0.03445184603333473
   ]
  },
  {
   "children": [
    3,
    7,
    11,
    15,
    19
   ],
   "name": "hand_l",
   "rotation": [
    -0.022375963628292084,
    -0.000002264418071717955,
    -2.4984633029134784e-8,
    0.9997496008872986
   ],
   "scale": [
    1,
    1,
    0.9999999403953552
   ],
   "translation": [
    3.552464278300249e-8,
    0.2866995632648468,
    2.093656803481281e-9
   ]
  },
  {
   "children": [
    20
   ],
   "name": "lowerarm_l",
   "rotation": [
    0.02380216494202614,
    0.00008197447459679097,
    -0.0000018569982103144866,
    0.9997166991233826
   ],
   "translation": [
    -5.72151748201577e-8,
    0.27639344334602356,
    7.8580342233181e-10
   ]
  },
  {
   "children": [
    21
   ],
   "name": "upperarm_l",
   "rotation": [
    0.17232586443424225,
    0.6858594417572021,
    -0.1717943400144577,
    0.6858479380607605
   ],
   "scale": [
    1,
    1,
    0.9999999403953552
   ],
   "translation": [
    -0.0018452402437105775,
    0.1622258722782135,
    -0.014128580689430237
   ]
  },
  {
   "children": [
    22
   ],
   "name": "clavicle_l",
   "rotation": [
    -0.5471324920654297,
    -0.32042771577835083,
    -0.39127781987190247,
    0.6669886112213135
   ],
   "scale": [
    1,
    0.9999999403953552,
    0.9999999403953552
   ],
   "translation": [
    0.04764219745993614,
    0.1537584513425827,
    0.05154227465391159
   ]
  },
  {
   "name": "index_04_leaf_r",
   "rotation": [
    3.4924596548080444e-8,
    -1,
    -1.4546424774355277e-13,
    0.0000035325672342878534
   ],
   "translation": [
    -4.0381564758718014e-10,
    0.02703704498708248,
    -1.6364299426641082e-7
   ]
  },
  {
   "children": [
    24
   ],
   "name": "index_03_r",
   "rotation": [
    9.442757686883851e-10,
    2.467581694531873e-12,
    0.00013324433530215174,
    1
   ],
   "scale": [
    0.9999999403953552,
    0.9999999403953552,
    1
   ],
   "translation": [
    6.45741238258779e-11,
    0.031178515404462814,
    -4.269408293566812e-8
   ]
  },
  {
   "children": [
    25
   ],
   "name": "index_02_r",
   "rotation": [
    1.6651874545914325e-8,
    -1.0229495472913186e-7,
    0.0021402789279818535,
    0.9999977350234985
   ],
   "scale": [
    0.9999999403953552,
    0.9999999403953552,
    1
   ],
   "translation": [
    2.4874680093489587e-9,
    0.03646673634648323,
    -1.3141995225396386e-7
   ]
  },
  {
   "children": [
    26
   ],
   "name": "index_01_r",
   "rotation": [
    -0.003309233346953988,
    -0.7071018218994141,
    0.003309250809252262,
    0.7070962190628052
   ],
   "scale": [
    0.9999999403953552,
    0.9999997615814209,
    0.9999999403953552
   ],
   "translation": [
    -0.004829996731132269,
    0.10147199779748917,
    0.04163568466901779
   ]
  },
  {
   "name": "middle_04_leaf_r",
   "rotation": [
    -2.793966169534201e-9,
    -1,
    -6.924710337205455e-15,
    0.0000035325672342878534
   ],
   "translation": [
    3.7953213904984295e-9,
    0.03406360745429993,
    4.271811349099153e-9
   ]
  },
  {
   "children": [
    28
   ],
   "name": "middle_03_r",
   "rotation": [
    2.35789627822669e-8,
    7.405936974791416e-11,
    0.0032188729383051395,
    0.9999948143959045
   ],
   "scale": [
    0.9999998807907104,
    1,
    1
   ],
   "translation": [
    9.384166332893074e-9,
    0.03371082618832588,
    -7.119795952803543e-8
   ]
  },
  {
   "children": [
    29
   ],
   "name": "middle_02_r",
   "rotation": [
    -2.8373698057748697e-8,
    -1.0225326008139746e-7,
    -0.0038675875402987003,
    0.9999925494194031
   ],
   "scale": [
    1,
    1.0000001192092896,
    1
   ],
   "translation": [
    -9.88620740827173e-9,
    0.04189101606607437,
    1.1254110177105758e-7
   ]
  },
  {
   "children": [
    30
   ],
   "name": "middle_01_r",
   "rotation": [
    -0.00797991268336773,
    -0.7070646286010742,
    0.00797996111214161,
    0.7070589065551758
   ],
   "translation": [
    -0.002184950979426503,
    0.0992927998304367,
    0.012272410094738007
   ]
  },
  {
   "name": "pinky_04_leaf_r",
   "rotation": [
    -1.564621925354004e-7,
    -1,
    1.4948572978415453e-14,
    0.000003651776296464959
   ],
   "translation": [
    1.1232259566895664e-9,
    0.02405712753534317,
    -1.2635334201149817e-7
   ]
  },
  {
   "children": [
    32
   ],
   "name": "pinky_03_r",
   "rotation": [
    -2.1231635116691905e-8,
    -7.60008583844396e-11,
    -0.0028985226526856422,
    0.9999958276748657
   ],
   "translation": [
    -2.6011548470705748e-9,
    0.030626662075519562,
    -2.838231125679158e-7
   ]
  },
  {
   "children": [
    33
   ],
   "name": "pinky_02_r",
   "rotation": [
    1.6667089042243788e-8,
    -1.0210559509005179e-7,
    0.0017049292800948024,
    0.9999985694885254
   ],
   "scale": [
    0.9999999403953552,
    0.9999999403953552,
    1
   ],
   "translation": [
    1.8344508134759963e-9,
    0.03545662388205528,
    -2.6714499767876987e-7
   ]
  },
  {
   "children": [
    34
   ],
   "name": "pinky_01_r",
   "rotation": [
    -0.010447758249938488,
    -0.7070325016975403,
    0.010447816923260689,
    0.7070267200469971
   ],
   "scale": [
    0.9999999403953552,
    0.9999997615814209,
    0.9999999403953552
   ],
   "translation": [
    -0.004370004404336214,
    0.08044053614139557,
    -0.0390932597219944
   ]
  },
  {
   "name": "ring_04_leaf_r",
   "rotation": [
    1.1455267667770386e-7,
    -1,
    -4.096592314505043e-13,
    0.0000036517765238386346
   ],
   "translation": [
    -3.001332515850663e-9,
    0.032546788454055786,
    1.7338152247248217e-8
   ]
  },
  {
   "children": [
    36
   ],
   "name": "ring_03_r",
   "rotation": [
    2.555577616192295e-8,
    7.854494138426205e-11,
    0.0034884519409388304,
    0.9999939203262329
   ],
   "scale": [
    1,
    0.9999999403953552,
    1
   ],
   "translation": [
    -8.356437319889665e-9,
    0.03174024820327759,
    -2.934625911166222e-7
   ]
  },
  {
   "children": [
    37
   ],
   "name": "ring_02_r",
   "rotation": [
    -1.6908929367787096e-8,
    -1.0257185323325757e-7,
    -0.0024741191882640123,
    0.9999969601631165
   ],
   "translation": [
    -4.4165062718093395e-9,
    0.040251459926366806,
    -2.1885399803522887e-7
   ]
  },
  {
   "children": [
    38
   ],
   "name": "ring_01_r",
   "rotation": [
    0.0025808759965002537,
    -0.7071049213409424,
    -0.002580893924459815,
    0.707099199295044
   ],
   "scale": [
    1,
    0.9999999403953552,
    1
   ],
   "translation": [
    -0.0025299135595560074,
    0.09249408543109894,
    -0.0158990565687418
   ]
  },
  {
   "name": "thumb_04_leaf_r",
   "rotation": [
    9.778760841072653e-7,
    -0.48539113998413086,
    0.0000015996675983842579,
    0.8742971420288086
   ],
   "scale": [
    0.9999999403953552,
    0.9999999403953552,
    0.9999999403953552
   ],
   "translation": [
    -1.507578417658806e-8,
    0.03596356511116028,
    3.5390257835388184e-8
   ]
  },
  {
   "children": [
    40
   ],
   "name": "thumb_03_r",
   "rotation": [
    -0.001281921868212521,
    -0.00005831783710164018,
    -0.00025530587299726903,
    0.9999991655349731
   ],
   "scale": [
    1,
    0.9999999403953552,
    1
   ],
   "translation": [
    -4.3195541366003454e-7,
    0.040963537991046906,
    -4.330649971961975e-8
   ]
  },
  {
   "children": [
    41
   ],
   "name": "thumb_02_r",
   "rotation": [
    0.00191294786054641,
    -0.00019206471915822476,
    0.00044811420957557857,
    0.9999980926513672
   ],
   "scale": [
    0.9999999403953552,
    0.9999999403953552,
    0.9999999403953552
   ],
   "translation": [
    -8.856295607984066e-8,
    0.04119421914219856,
    -6.05359673500061e-8
   ]
  },
  {
   "children": [
    42
   ],
   "name": "thumb_01_r",
   "rotation": [
    0.263997346162796,
    -0.9450139403343201,
    -0.18827401101589203,
    0.04250777140259743
   ],
   "scale": [
    0.9999998807907104,
    1,
    0.9999999403953552
   ],
   "translation": [
    -0.011499987915158272,
    -0.0033070812933146954,
    0.034451860934495926
   ]
  },
  {
   "children": [
    27,
    31,
    35,
    39,
    43
   ],
   "name": "hand_r",
   "rotation": [
    -0.022375980392098427,
    0.0000022644110231340164,
    2.7651914535908872e-8,
    0.9997496008872986
   ],
   "translation": [
    -4.518094698369168e-8,
    0.28669968247413635,
    -9.057657734956592e-9
   ]
  },
  {
   "children": [
    44
   ],
   "name": "lowerarm_r",
   "rotation": [
    0.023802196606993675,
    -0.00008207010250771418,
    0.0000018658730596143869,
    0.9997166991233826
   ],
   "translation": [
    5.270783276500879e-8,
    0.27639344334602356,
    3.8708094507455826e-9
   ]
  },
  {
   "children": [
    45
   ],
   "name": "upperarm_r",
   "rotation": [
    0.17232581973075867,
    -0.6858593225479126,
    0.17179423570632935,
    0.6858481168746948
   ],
   "scale": [
    0.9999998211860657,
    0.9999998807907104,
    1
   ],
   "translation": [
    0.0018452488584443927,
    0.1622259020805359,
    -0.014128814451396465
   ]
  },
  {
   "children": [
    46
   ],
   "name": "clavicle_r",
   "rotation": [
    -0.5471324920654297,
    0.3204275965690613,
    0.39127784967422485,
    0.6669886708259583
   ],
   "scale": [
    0.9999998807907104,
    0.9999998807907104,
    0.9999999403953552
   ],
   "translation": [
    -0.04764220491051674,
    0.15375857055187225,
    0.05154227092862129
   ]
  },
  {
   "name": "Head",
   "rotation": [
    -0.20467427372932434,
    -2.2515889597229943e-8,
    -1.727914522575702e-8,
    0.9788301587104797
   ],
   "scale": [
    1,
    1,
    0.9999999403953552
   ],
   "translation": [
    -5.874749471612706e-15,
    0.0818699449300766,
    1.0617077350616455e-7
   ]
  },
  {
   "children": [
    48
   ],
   "name": "neck_01",
   "rotation": [
    0.30883702635765076,
    5.720727003222237e-9,
    3.1319398630103024e-8,
    0.9511149525642395
   ],
   "scale": [
    1,
    0.9999998807907104,
    0.9999999403953552
   ],
   "translation": [
    -3.58681183712517e-15,
    0.2278793305158615,
    0
   ]
  },
  {
   "children": [
    23,
    47,
    49
   ],
   "name": "spine_03",
   "rotation": [
    -0.10099756717681885,
    -3.362349687563437e-8,
    -1.3048146563221508e-8,
    0.9948866963386536
   ],
   "scale": [
    1,
    0.9999999403953552,
    1
   ],
   "translation": [
    1.790234627208065e-15,
    0.14536155760288239,
    -2.0954757928848267e-9
   ]
  },
  {
   "children": [
    50
   ],
   "name": "spine_02",
   "rotation": [
    -0.05572862923145294,
    -0.00004984095357940532,
    -0.000002790975258903927,
    0.998445987701416
   ],
   "scale": [
    1,
    0.9999998807907104,
    0.9999998807907104
   ],
   "translation": [
    -4.3864000973115047e-13,
    0.12689653038978577,
    1.932494342327118e-8
   ]
  },
  {
   "children": [
    51
   ],
   "name": "spine_01",
   "rotation": [
    -0.06393137574195862,
    0.000049777856474975124,
    -0.0000032042516977526248,
    0.9979543089866638
   ],
   "scale": [
    1,
    0.9999999403953552,
    1
   ],
   "translation": [
    -2.006371956596309e-13,
    0.14553840458393097,
    -3.725290298461914e-8
   ]
  },
  {
   "name": "ball_leaf_l",
   "rotation": [
    -1.475640498682651e-8,
    0.0001727771887090057,
    6.448616814147545e-12,
    1
   ],
   "scale": [
    1,
    1.0000001192092896,
    1
   ],
   "translation": [
    -6.818217102022572e-9,
    0.07831522822380066,
    2.5330715303084617e-9
   ]
  },
  {
   "children": [
    53
   ],
   "name": "ball_l",
   "rotation": [
    -0.000032926880521699786,
    0.9816135764122009,
    -0.19087889790534973,
    0.00016974942991510034
   ],
   "scale": [
    1,
    1.000000238418579,
    0.9999999403953552
   ],
   "translation": [
    1.8135505541749808e-8,
    0.17154596745967865,
    -1.7863172274701355e-8
   ]
  },
  {
   "children": [
    54
   ],
   "name": "foot_l",
   "rotation": [
    -0.5978584289550781,
    1.402610649847702e-7,
    -1.5103441342034785e-7,
    0.8016017079353333
   ],
   "scale": [
    1,
    0.9999999403953552,
    1
   ],
   "translation": [
    -2.2300350011050796e-8,
    0.5360154509544373,
    4.8252095652401295e-9
   ]
  },
  {
   "children": [
    55
   ],
   "name": "calf_l",
   "rotation": [
    0.07122322171926498,
    -2.4851308566553598e-8,
    -2.1435107910861007e-8,
    0.9974604249000549
   ],
   "scale": [
    1,
    1,
    0.9999999403953552
   ],
   "translation": [
    -6.482477665770148e-9,
    0.4713438153266907,
    -9.571774484129492e-10
   ]
  },
  {
   "children": [
    56
   ],
   "name": "thigh_l",
   "rotation": [
    0.9893749952316284,
    -3.685957494781178e-8,
    1.840649161977126e-7,
    0.145386204123497
   ],
   "scale": [
    1,
    0.9999999403953552,
    0.9999971985816956
   ],
   "translation": [
    0.12811002135276794,
    0.01202909555286169,
    -0.010227023623883724
   ]
  },
  {
   "name": "ball_leaf_r",
   "rotation": [
    -1.475640498682651e-8,
    0.0001727771887090057,
    6.448616814147545e-12,
    1
   ],
   "scale": [
    1,
    1.0000001192092896,
    1
   ],
   "translation": [
    -6.776835093091904e-9,
    0.07831522822380066,
    1.8273036417326693e-9
   ]
  },
  {
   "children": [
    58
   ],
   "name": "ball_r",
   "rotation": [
    -0.000032926880521699786,
    0.9816135764122009,
    -0.19087889790534973,
    0.00016974942991510034
   ],
   "scale": [
    1,
    1.000000238418579,
    0.9999999403953552
   ],
   "translation": [
    -1.166676888431084e-8,
    0.17154596745967865,
    -1.3801795262224914e-8
   ]
  },
  {
   "children": [
    59
   ],
   "name": "foot_r",
   "rotation": [
    -0.5978584289550781,
    1.402610649847702e-7,
    -1.5103441342034785e-7,
    0.8016017079353333
   ],
   "scale": [
    1,
    0.9999999403953552,
    1
   ],
   "translation": [
    7.501972376644517e-9,
    0.5360154509544373,
    -3.4282257033169117e-9
   ]
  },
  {
   "children": [
    60
   ],
   "name": "calf_r",
   "rotation": [
    0.07122322171926498,
    -2.4851308566553598e-8,
    -2.1435107910861007e-8,
    0.9974604249000549
   ],
   "scale": [
    1,
    1,
    0.9999999403953552
   ],
   "translation": [
    -6.4824812184838265e-9,
    0.47134384512901306,
    9.571774484129492e-10
   ]
  },
  {
   "children": [
    61
   ],
   "name": "thigh_r",
   "rotation": [
    0.9893749952316284,
    -3.685957494781178e-8,
    1.840649161977126e-7,
    0.145386204123497
   ],
   "scale": [
    1,
    0.9999999403953552,
    0.9999971985816956
   ],
   "translation": [
    -0.12810996174812317,
    0.012029214762151241,
    -0.010227114893496037
   ]
  },
  {
   "children": [
    52,
    57,
    62
   ],
   "name": "pelvis",
   "rotation": [
    0.7879694700241089,
    7.39700851681846e-8,
    9.466430839211171e-8,
    0.6157143115997314
   ],
   "translation": [
    -1.0411063219753318e-14,
    0.052554965019226074,
    1.071569800376892
   ]
  },
  {
   "children": [
    63
   ],
   "name": "root",
   "rotation": [
    -0.7071067690849304,
    0,
    0,
    0.7071067690849304
   ]
  },
  {
   "mesh": 0,
   "name": "Eyebrows",
   "skin": 0
  },
  {
   "mesh": 1,
   "name": "Eyes",
   "skin": 0
  },
  {
   "mesh": 2,
   "name": "Superhero_Female",
   "skin": 0
  },
  {
   "children": [
    65,
    66,
    67,
    64
   ],
   "name": "Armature"
  }
 ],
 "materials": [
  {
   "doubleSided": true,
   "name": "MI_Hair_2",
   "normalTexture": {
    "index": 0
   },
   "pbrMetallicRoughness": {
    "baseColorTexture": {
     "index": 1
    },
    "metallicFactor": 0,
    "roughnessFactor": 0.822727262973785
   }
  },
  {
   "doubleSided": true,
   "name": "MI_Eyes",
   "normalTexture": {
    "index": 2
   },
   "pbrMetallicRoughness": {
    "baseColorTexture": {
     "index": 3
    },
    "metallicFactor": 0,
    "roughnessFactor": 0.345454543828964
   }
  },
  {
   "doubleSided": true,
   "name": "MI_Superhero_Female",
   "normalTexture": {
    "index": 4
   },
   "pbrMetallicRoughness": {
    "baseColorTexture": {
     "index": 5
    },
    "metallicFactor": 0,
    "metallicRoughnessTexture": {
     "index": 6
    }
   }
  }
 ],
 "meshes": [
  {
   "name": "Eyebrows",
   "primitives": [
    {
     "attributes": {
      "POSITION": 0,
      "NORMAL": 1,
      "TEXCOORD_0": 2,
      "TEXCOORD_1": 3,
      "TEXCOORD_2": 4,
      "TEXCOORD_3": 5,
      "COLOR_0": 6,
      "COLOR_1": 7,
      "COLOR_2": 8,
      "JOINTS_0": 9,
      "WEIGHTS_0": 10
     },
     "indices": 11,
     "material": 0
    }
   ]
  },
  {
   "name": "Eyes",
   "primitives": [
    {
     "attributes": {
      "POSITION": 13,
      "NORMAL": 14,
      "TEXCOORD_0": 15,
      "TEXCOORD_1": 16,
      "TEXCOORD_2": 17,
      "TEXCOORD_3": 18,
      "COLOR_0": 19,
      "COLOR_1": 20,
      "COLOR_2": 21,
      "JOINTS_0": 22,
      "WEIGHTS_0": 23
     },
     "indices": 24,
     "material": 1
    }
   ]
  },
  {
   "name": "Superhero_Female",
   "primitives": [
    {
     "attributes": {
      "POSITION": 25,
      "NORMAL": 26,
      "TEXCOORD_0": 27,
      "TEXCOORD_1": 28,
      "TEXCOORD_2": 29,
      "TEXCOORD_3": 30,
      "TEXCOORD_4": 31,
      "COLOR_0": 32,
      "COLOR_1": 33,
      "COLOR_2": 34,
      "COLOR_3": 35,
      "JOINTS_0": 36,
      "WEIGHTS_0": 37
     },
     "indices": 38,
     "material": 2
    }
   ]
  }
 ],
 "skins": [
  {
   "inverseBindMatrices": 12,
   "joints": [
    64,
    63,
    52,
    51,
    50,
    23,
    22,
    21,
    20,
    3,
    2,
    1,
    0,
    7,
    6,
    5,
    4,
    11,
    10,
    9,
    8,
    15,
    14,
    13,
    12,
    19,
    18,
    17,
    16,
    47,
    46,
    45,
    44,
    27,
    26,
    25,
    24,
    31,
    30,
    29,
    28,
    35,
    34,
    33,
    32,
    39,
    38,
    37,
    36,
    43,
    42,
    41,
    40,
    49,
    48,
    57,
    56,
    55,
    54,
    53,
    62,
    61,
    60,
    59,
    58
   ],
   "name": "Armature"
  }
 ],
 "accessors": [
  {
   "bufferView": 0,
   "componentType": 5126,
   "count": 912,
   "max": [
    0.06882619857788086,
    1.9320405721664429,
    0.09941490739583969
   ],
   "min": [
    -0.06882619857788086,
    1.8909499645233154,
    0.05540205538272858
   ],
   "type": "VEC3"
  },
  {
   "bufferView": 1,
   "componentType": 5126,
   "count": 912,
   "type": "VEC3"
  },
  {
   "bufferView": 2,
   "componentType": 5126,
   "count": 912,
   "type": "VEC2"
  },
  {
   "bufferView": 3,
   "componentType": 5126,
   "count": 912,
   "type": "VEC2"
  },
  {
   "bufferView": 4,
   "componentType": 5126,
   "count": 912,
   "type": "VEC2"
  },
  {
   "bufferView": 5,
   "componentType": 5126,
   "count": 912,
   "type": "VEC2"
  },
  {
   "bufferView": 6,
   "componentType": 5121,
   "count": 912,
   "normalized": true,
   "type": "VEC4"
  },
  {
   "bufferView": 7,
   "componentType": 5123,
   "count": 912,
   "normalized": true,
   "type": "VEC4"
  },
  {
   "bufferView": 8,
   "componentType": 5123,
   "count": 912,
   "normalized": true,
   "type": "VEC4"
  },
  {
   "bufferView": 9,
   "componentType": 5121,
   "count": 912,
   "type": "VEC4"
  },
  {
   "bufferView": 10,
   "componentType": 5126,
   "count": 912,
   "type": "VEC4"
  },
  {
   "bufferView": 11,
   "componentType": 5123,
   "count": 4440,
   "type": "SCALAR"
  },
  {
   "bufferView": 12,
   "componentType": 5126,
   "count": 65,
   "type": "MAT4"
  },
  {
   "bufferView": 13,
   "componentType": 5126,
   "count": 556,
   "max": [
    0.05577653646469116,
    1.9163662195205688,
    0.08167486637830734
   ],
   "min": [
    -0.05577653646469116,
    1.8802967071533203,
    0.04625755548477173
   ],
   "type": "VEC3"
  },
  {
   "bufferView": 14,
   "componentType": 5126,
   "count": 556,
   "type": "VEC3"
  },
  {
   "bufferView": 15,
   "componentType": 5126,
   "count": 556,
   "type": "VEC2"
  },
  {
   "bufferView": 16,
   "componentType": 5126,
   "count": 556,
   "type": "VEC2"
  },
  {
   "bufferView": 17,
   "componentType": 5126,
   "count": 556,
   "type": "VEC2"
  },
  {
   "bufferView": 18,
   "componentType": 5126,
   "count": 556,
   "type": "VEC2"
  },
  {
   "bufferView": 19,
   "componentType": 5121,
   "count": 556,
   "normalized": true,
   "type": "VEC4"
  },
  {
   "bufferView": 20,
   "componentType": 5123,
   "count": 556,
   "normalized": true,
   "type": "VEC4"
  },
  {
   "bufferView": 21,
   "componentType": 5123,
   "count": 556,
   "normalized": true,
   "type": "VEC4"
  },
  {
   "bufferView": 22,
   "componentType": 5121,
   "count": 556,
   "type": "VEC4"
  },
  {
   "bufferView": 23,
   "componentType": 5126,
   "count": 556,
   "type": "VEC4"
  },
  {
   "bufferView": 24,
   "componentType": 5123,
   "count": 2304,
   "type": "SCALAR"
  },
  {
   "bufferView": 25,
   "componentType": 5126,
   "count": 7380,
   "max": [
    0.9735451936721802,
    2.019160270690918,
    0.16126170754432678
   ],
   "min": [
    -0.9735453724861145,
    -0.009668341837823391,
    -0.18683995306491852
   ],
   "type": "VEC3"
  },
  {
   "bufferView": 26,
   "componentType": 5126,
   "count": 7380,
   "type": "VEC3"
  },
  {
   "bufferView": 27,
   "componentType": 5126,
   "count": 7380,
   "type": "VEC2"
  },
  {
   "bufferView": 28,
   "componentType": 5126,
   "count": 7380,
   "type": "VEC2"
  },
  {
   "bufferView": 29,
   "componentType": 5126,
   "count": 7380,
   "type": "VEC2"
  },
  {
   "bufferView": 30,
   "componentType": 5126,
   "count": 7380,
   "type": "VEC2"
  },
  {
   "bufferView": 31,
   "componentType": 5126,
   "count": 7380,
   "type": "VEC2"
  },
  {
   "bufferView": 32,
   "componentType": 5121,
   "count": 7380,
   "normalized": true,
   "type": "VEC4"
  },
  {
   "bufferView": 33,
   "componentType": 5123,
   "count": 7380,
   "normalized": true,
   "type": "VEC4"
  },
  {
   "bufferView": 34,
   "componentType": 5123,
   "count": 7380,
   "normalized": true,
   "type": "VEC4"
  },
  {
   "bufferView": 35,
   "componentType": 5123,
   "count": 7380,
   "normalized": true,
   "type": "VEC4"
  },
  {
   "bufferView": 36,
   "componentType": 5121,
   "count": 7380,
   "type": "VEC4"
  },
  {
   "bufferView": 37,
   "componentType": 5126,
   "count": 7380,
   "type": "VEC4"
  },
  {
   "bufferView": 38,
   "componentType": 5123,
   "count": 38436,
   "type": "SCALAR"
  }
 ],
 "bufferViews": [
  {
   "buffer": 0,
   "byteLength": 10944,
   "byteOffset": 0,
   "target": 34962
  },
  {
   "buffer": 0,
   "byteLength": 10944,
   "byteOffset": 10944,
   "target": 34962
  },
  {
   "buffer": 0,
   "byteLength": 7296,
   "byteOffset": 21888,
   "target": 34962
  },
  {
   "buffer": 0,
   "byteLength": 7296,
   "byteOffset": 29184,
   "target": 34962
  },
  {
   "buffer": 0,
   "byteLength": 7296,
   "byteOffset": 36480,
   "target": 34962
  },
  {
   "buffer": 0,
   "byteLength": 7296,
   "byteOffset": 43776,
   "target": 34962
  },
  {
   "buffer": 0,
   "byteLength": 3648,
   "byteOffset": 51072,
   "target": 34962
  },
  {
   "buffer": 0,
   "byteLength": 7296,
   "byteOffset": 54720,
   "target": 34962
  },
  {
   "buffer": 0,
   "byteLength": 7296,
   "byteOffset": 62016,
   "target": 34962
  },
  {
   "buffer": 0,
   "byteLength": 3648,
   "byteOffset": 69312,
   "target": 34962
  },
  {
   "buffer": 0,
   "byteLength": 14592,
   "byteOffset": 72960,
   "target": 34962
  },
  {
   "buffer": 0,
   "byteLength": 8880,
   "byteOffset": 87552,
   "target": 34963
  },
  {
   "buffer": 0,
   "byteLength": 4160,
   "byteOffset": 96432
  },
  {
   "buffer": 0,
   "byteLength": 6672,
   "byteOffset": 100592,
   "target": 34962
  },
  {
   "buffer": 0,
   "byteLength": 6672,
   "byteOffset": 107264,
   "target": 34962
  },
  {
   "buffer": 0,
   "byteLength": 4448,
   "byteOffset": 113936,
   "target": 34962
  },
  {
   "buffer": 0,
   "byteLength": 4448,
   "byteOffset": 118384,
   "target": 34962
  },
  {
   "buffer": 0,
   "byteLength": 4448,
   "byteOffset": 122832,
   "target": 34962
  },
  {
   "buffer": 0,
   "byteLength": 4448,
   "byteOffset": 127280,
   "target": 34962
  },
  {
   "buffer": 0,
   "byteLength": 2224,
   "byteOffset": 131728,
   "target": 34962
  },
  {
   "buffer": 0,
   "byteLength": 4448,
   "byteOffset": 133952,
   "target": 34962
  },
  {
   "buffer": 0,
   "byteLength": 4448,
   "byteOffset": 138400,
   "target": 34962
  },
  {
   "buffer": 0,
   "byteLength": 2224,
   "byteOffset": 142848,
   "target": 34962
  },
  {
   "buffer": 0,
   "byteLength": 8896,
   "byteOffset": 145072,
   "target": 34962
  },
  {
   "buffer": 0,
   "byteLength": 4608,
   "byteOffset": 153968,
   "target": 34963
  },
  {
   "buffer": 0,
   "byteLength": 88560,
   "byteOffset": 158576,
   "target": 34962
  },
  {
   "buffer": 0,
   "byteLength": 88560,
   "byteOffset": 247136,
   "target": 34962
  },
  {
   "buffer": 0,
   "byteLength": 59040,
   "byteOffset": 335696,
   "target": 34962
  },
  {
   "buffer": 0,
   "byteLength": 59040,
   "byteOffset": 394736,
   "target": 34962
  },
  {
   "buffer": 0,
   "byteLength": 59040,
   "byteOffset": 453776,
   "target": 34962
  },
  {
   "buffer": 0,
   "byteLength": 59040,
   "byteOffset": 512816,
   "target": 34962
  },
  {
   "buffer": 0,
   "byteLength": 59040,
   "byteOffset": 571856,
   "target": 34962
  },
  {
   "buffer": 0,
   "byteLength": 29520,
   "byteOffset": 630896,
   "target": 34962
  },
  {
   "buffer": 0,
   "byteLength": 59040,
   "byteOffset": 660416,
   "target": 34962
  },
  {
   "buffer": 0,
   "byteLength": 59040,
   "byteOffset": 719456,
   "target": 34962
  },
  {
   "buffer": 0,
   "byteLength": 59040,
   "byteOffset": 778496,
   "target": 34962
  },
  {
   "buffer": 0,
   "byteLength": 29520,
   "byteOffset": 837536,
   "target": 34962
  },
  {
   "buffer": 0,
   "byteLength": 118080,
   "byteOffset": 867056,
   "target": 34962
  },
  {
   "buffer": 0,
   "byteLength": 76872,
   "byteOffset": 985136,
   "target": 34963
  }
 ],
 "buffers": [
  {
   "byteLength": 1062008,
   "uri": "Superhero_Female_FullBody_Tall.bin"
  }
 ],
 "textures": [
  {
   "sampler": 0,
   "source": 0
  },
  {
   "sampler": 0,
   "source": 1
  },
  {
   "sampler": 0,
   "source": 2
  },
  {
   "sampler": 0,
   "source": 3
  },
  {
   "sampler": 0,
   "source": 4
  },
  {
   "sampler": 0,
   "source": 5
  },
  {
   "sampler": 0,
   "source": 6
  }
 ],
 "images": [
  {
   "mimeType": "image/png",
   "name": "T_Hair_2_Normal",
   "uri": "../hair/T_Hair_2_Normal.png"
  },
  {
   "mimeType": "image/png",
   "name": "T_Hair_2_BaseColor",
   "uri": "../hair/T_Hair_2_BaseColor.png"
  },
  {
   "mimeType": "image/png",
   "name": "T_Eye_Normal.png",
   "uri": "T_Eye_Normal.png"
  },
  {
   "mimeType": "image/png",
   "name": "T_Eye_Brown",
   "uri": "T_Eye_Brown.png"
  },
  {
   "mimeType": "image/png",
   "name": "T_Superhero_Female_Normal",
   "uri": "T_Superhero_Female_Normal.png"
  },
  {
   "mimeType": "image/png",
   "name": "T_Superhero_Female_Dark_BaseColor",
   "uri": "T_Superhero_Female_Dark_BaseColor.png"
  },
  {
   "mimeType": "image/png",
   "name": "T_Superhero_Female_Roughness",
   "uri": "T_Superhero_Female_Roughness.png"
  }
 ],
 "samplers": [
  {
   "magFilter": 9729,
   "minFilter": 9987
  }
 ]
}
